<?xml version="1.0" standalone="no"?>
<!DOCTYPE svg PUBLIC "-//W3C//DTD SVG 1.1//EN" "http://www.w3.org/Graphics/SVG/1.1/DTD/svg11.dtd" >
<svg xmlns="http://www.w3.org/2000/svg">
<metadata>Generated by IcoMoon</metadata>
<defs>
<font id="solve-v02" horiz-adv-x="1024">
<font-face units-per-em="1024" ascent="960" descent="-64" />
<missing-glyph horiz-adv-x="1024" />
<glyph unicode="&#x20;" d="" horiz-adv-x="512" />
<glyph unicode="&#x21;" d="M512 960c-186 0-384-52-384-150v-512c0-92 184-144 362-148v-172h-256c-12 0-20-8-20-20s8-22 20-22h556c12 0 20 10 20 22s-8 20-20 20h-256v172c178 4 362 56 362 148v512c0 98-198 150-384 150zM854 470c0-46-130-108-342-108s-342 62-342 108v100c68-52 208-80 342-80s274 28 342 80zM854 640c0-44-130-106-342-106s-342 62-342 106v100c68-52 208-78 342-78s274 26 342 78zM512 918c212 0 342-62 342-108 0-44-130-106-342-106-212 0-342 62-342 106 0 46 130 108 342 108zM512 192c-212 0-342 62-342 106v100c68-50 208-78 342-78s274 28 342 78v-100c0-44-130-106-342-106zM86-42c0-12-10-22-22-22s-22 10-22 22c0 12 10 20 22 20 12 0 22-8 22-20zM170-42c0-12-8-22-20-22s-22 10-22 22c0 12 10 20 22 20 12 0 20-8 20-20zM896-42c0-12-10-22-22-22s-20 10-20 22c0 12 8 20 20 20 12 0 22-8 22-20zM982-42c0-12-10-22-22-22s-22 10-22 22c0 12 10 20 22 20 12 0 22-8 22-20z" />
<glyph unicode="&#x22;" d="M746 490c-152 0-276-124-276-276 0-154 124-278 276-278 154 0 278 124 278 278 0 152-124 276-278 276zM746-22c-128 0-234 106-234 236 0 128 106 234 234 234 130 0 236-106 236-234 0-130-106-236-236-236zM854 234h-86v86c0 12-10 22-22 22s-20-10-20-22v-86h-86c-12 0-22-8-22-20s10-22 22-22h86v-86c0-12 8-20 20-20s22 8 22 20v86h86c12 0 20 10 20 22s-8 20-20 20zM426 448c-180 0-384 62-384 150v86c70-64 214-108 384-108 172 0 316 44 384 108v-108c0-12 10-22 22-22s22 10 22 22v192c0 108-188 192-428 192-238 0-426-84-426-192v-554c0-102 162-182 384-192 0 0 0 0 0 0 12 0 20 10 22 20 0 12-10 22-22 22-210 10-342 86-342 150v106c60-56 174-94 320-104 0 0 0 0 0 0 12 0 22 8 22 20 0 12-8 22-20 22-180 12-322 76-322 148v106c70-64 214-106 384-106 12 0 22 8 22 20 0 12-10 22-22 22zM426 918c182 0 384-62 384-150s-202-150-384-150c-180 0-384 62-384 150 0 88 204 150 384 150z" />
<glyph unicode="&#x23;" d="M490 450c-22-2-42-2-64-2-180 0-384 62-384 150v86c70-64 214-108 384-108 172 0 316 44 384 108v-150c0-12 10-22 22-22s22 10 22 22v234c0 108-188 192-428 192-238 0-426-84-426-192v-554c0-108 188-192 426-192 12 0 22 8 22 20 0 12-10 22-22 22-180 0-384 62-384 150v106c70-64 214-106 384-106 12 0 22 8 22 20 0 12-10 22-22 22-180 0-384 62-384 150v106c70-64 214-106 384-106 22 0 44 0 66 2 12 0 20 10 20 22 0 12-10 20-22 20zM426 918c182 0 384-62 384-150s-202-150-384-150c-180 0-384 62-384 150 0 88 204 150 384 150zM1008 368c-12 2-24-4-26-16l-14-58c-22 34-52 62-88 82-54 30-118 38-178 20-60-18-110-58-140-112-30-56-36-118-20-178 18-62 58-110 114-140 34-20 72-30 112-30 22 0 44 4 66 10 10 2 18 14 14 26-4 12-14 18-26 14-50-14-102-8-146 16-46 26-78 66-92 116-14 48-8 100 16 146 24 44 66 76 114 92 50 14 102 8 146-16 34-20 60-46 78-78l-76 18c-12 4-24-4-26-14-4-12 4-24 14-26l118-30c0 0 0 0 2 0 0 0 0 0 2 0s0 0 0 0c2 0 4 0 6 0 0 0 0 0 0 0 0 0 0 0 2 0 0 0 2 2 4 2 0 0 0 0 2 2 0 0 2 0 2 2 0 0 2 2 2 4 2 0 2 2 2 2 0 2 2 2 2 4l30 116c2 12-4 24-16 26z" />
<glyph unicode="&#x24;" d="M1018-28l-136 136c26 32 40 70 40 114 0 100-82 184-184 184-100 0-184-84-184-184 0-102 84-184 184-184 44 0 82 14 114 40l136-136c4-4 10-6 14-6 6 0 12 2 16 6 8 8 8 22 0 30zM598 222c0 78 62 140 140 140s142-62 142-140c0-78-64-142-142-142-78 0-140 64-140 142zM490 450c-22-2-42-2-64-2-180 0-384 62-384 150v86c70-64 214-108 384-108 172 0 316 44 384 108v-150c0-12 10-22 22-22s22 10 22 22v234c0 108-188 192-428 192-238 0-426-84-426-192v-554c0-108 188-192 426-192 12 0 22 8 22 20 0 12-10 22-22 22-180 0-384 62-384 150v106c70-64 214-106 384-106 12 0 22 8 22 20 0 12-10 22-22 22-180 0-384 62-384 150v106c70-64 214-106 384-106 22 0 44 0 66 2 12 0 20 10 20 22 0 12-10 20-22 20zM426 918c182 0 384-62 384-150s-202-150-384-150c-180 0-384 62-384 150 0 88 204 150 384 150z" />
<glyph unicode="&#x25;" d="M832 790h-22v148c0 12-8 22-20 22h-598c-58 0-106-48-106-106v-812c0-58 48-106 106-106h640c12 0 22 10 22 22v810c0 12-10 22-22 22zM192 918h576v-128h-42v42h-300v-42h-234c-36 0-64 28-64 64 0 34 28 64 64 64zM470 790h212v-440l-106 106-106-106zM810-22h-618c-36 0-64 30-64 64v726c18-12 40-22 64-22h234v-498l150 148 150-148v498h84z" />
<glyph unicode="&#x26;" d="M878 790h-20v148c0 12-10 22-22 22h-598c-58 0-106-48-106-106v-812c0-58 48-106 106-106h640c12 0 22 10 22 22v810c0 12-10 22-22 22zM238 918h576v-128h-42v64c0 12-10 20-22 20h-512c-12 0-20-8-20-20s8-22 20-22h492v-42h-492c-34 0-64 28-64 64 0 34 30 64 64 64zM858-22h-620c-34 0-64 30-64 64v726c18-14 40-22 64-22h620z" />
<glyph unicode="&#x27;" d="M448-22h-256c-36 0-64 30-64 64v726c18-12 40-22 64-22h704v-170c0-12 10-22 22-22s20 10 20 22v192c0 12-8 22-20 22h-726c-36 0-64 28-64 64 0 34 28 64 64 64h726c12 0 20 8 20 20s-8 22-20 22h-726c-58 0-106-48-106-106 0-6 0-10 0-14 0-4 0-6 0-8v-790c0-58 48-106 106-106h256c12 0 22 10 22 22s-10 20-22 20zM746 490c-152 0-276-124-276-276 0-154 124-278 276-278 154 0 278 124 278 278 0 152-124 276-278 276zM746-22c-128 0-234 106-234 236 0 128 106 234 234 234 130 0 236-106 236-234 0-130-106-236-236-236zM816 208l-48-50v162c0 12-10 22-22 22s-20-10-20-22v-162l-50 50c-8 8-22 8-30 0-8-10-8-22 0-32l86-84c2-2 4-4 6-6 4 0 6 0 8 0 4 0 6 0 8 0 4 2 6 4 8 6l86 84c8 10 8 22 0 32-10 8-22 8-32 0zM192 874c-12 0-22-8-22-20s10-22 22-22h682c12 0 22 10 22 22s-10 20-22 20z" />
<glyph unicode="&#x28;" d="M222 410l136-98-58-178c-4-8 0-18 6-24 4-2 10-4 14-4 4 0 8 2 12 4l158 100 160-100c8-6 18-4 24 0 8 6 10 16 8 24l-60 178 138 98c6 4 10 14 6 24-2 8-10 14-20 14h-176l-60 178c-2 8-10 14-20 14-8 0-16-6-20-14l-58-178h-178c-8 0-16-6-20-14-2-10 0-20 8-24zM426 406c10 0 18 6 20 14l44 132 44-132c4-8 12-14 20-14h126l-96-68c-6-6-10-16-6-26l44-134-120 74c-6 4-16 4-22 0l-122-76 46 136c4 10 0 20-8 26l-94 68zM918 790h-726c-36 0-64 28-64 64 0 34 28 64 64 64h726c12 0 20 8 20 20s-8 22-20 22h-726c-58 0-106-48-106-106 0-6 0-10 0-16 0-2 0-4 0-6v-790c0-58 48-106 106-106h726c12 0 20 10 20 22v810c0 12-8 22-20 22zM896-22h-704c-36 0-64 30-64 64v726c18-14 40-22 64-22h704zM192 874c-12 0-22-8-22-20s10-22 22-22h682c12 0 22 10 22 22s-10 20-22 20z" />
<glyph unicode="&#x29;" d="M512 960c-282 0-512-230-512-512s230-512 512-512c282 0 512 230 512 512 0 282-230 512-512 512zM512-22c-258 0-470 212-470 470s212 470 470 470c258 0 470-212 470-470 0-258-212-470-470-470zM334 448l338 240c10 8 12 22 4 30-6 10-20 12-28 6l-362-258c-6-4-10-10-10-18 0-6 4-12 8-16l362-284c4-4 8-6 14-6s12 4 16 8c8 10 6 24-4 30z" />
<glyph unicode="&#x2a;" d="M512 960c-282 0-512-230-512-512s230-512 512-512c282 0 512 230 512 512 0 282-230 512-512 512zM512-22c-258 0-470 212-470 470s212 470 470 470c258 0 470-212 470-470 0-258-212-470-470-470zM378 748c-10 8-24 6-30-2-8-10-6-24 4-30l338-268-338-240c-10-8-12-22-4-30 4-6 10-10 16-10 4 0 10 2 12 4l362 258c6 4 10 10 10 18 0 6-4 12-8 16z" />
<glyph unicode="&#x2b;" d="M794 868c-82 62-204 92-368 92-108 0-202-16-282-46-96-38-144-88-144-146v-554c2-30 16-58 42-86 70-64 184-100 342-106 10 2 18 8 20 18 2 14-6 22-20 24-90 4-168 20-234 48-72 30-108 64-108 102v106c64-58 170-94 320-104 10 2 18 8 20 18 2 14-4 22-18 24-70 6-134 18-192 38-86 30-130 68-130 110v106c4-4 8-8 14-12 80-62 204-94 370-94 12 2 20 8 22 20-2 12-8 20-22 22-78 0-154 10-224 30-106 30-160 70-160 120v86c6-6 12-10 18-16 82-62 204-92 366-92 18 0 34 0 52 2 154 8 266 44 332 106v-108c2-12 8-20 22-22 12 2 20 8 22 22v192c-2 36-22 70-60 100zM746 686c-80-46-186-68-320-68-78 0-154 10-224 30-106 30-160 70-160 120 2 28 22 56 64 82 80 46 186 68 320 68 78 0 154-10 224-30 106-30 160-70 160-120-2-28-22-56-64-82zM970 378c-56 74-130 112-224 112-62 0-116-18-164-54-74-56-112-130-112-222 0-60 18-114 54-164 56-76 130-114 222-114 62 0 116 18 166 56 74 58 112 132 112 222 0 60-18 114-54 164zM746-22c-48 0-92 14-134 42-66 46-100 112-100 194 0 48 14 92 40 132 46 68 112 102 194 102 48 0 92-14 134-42 68-46 102-110 102-192 0-48-14-92-42-134-46-68-112-102-194-102zM866 256c4 0 6-2 8-6 0-4-2-6-4-8l-64-56 24-88c0-4-2-8-8-10 0 0-2 0-4 2l-72 54-70-54c-6-4-10-4-14 2 0 2 0 4 0 6l24 88-64 56c-6 4-6 8 0 12 2 2 4 2 6 2h78l32 80c2 2 6 4 8 4 4 0 6-2 8-4l32-80z" />
<glyph unicode="&#x2d;" d="M976 420l-470 532c0 0 0 0 0 2-4 4-10 6-16 6-6 0-10-2-14-6-2-2-2-2-2-2l-468-532c-8-10-8-22 2-30 8-8 22-8 30 2l432 490v-924c0-12 8-22 20-22s22 10 22 22v924l432-490c4-6 10-8 16-8s10 2 14 6c8 8 10 20 2 30z" />
<glyph unicode="&#x2e;" d="M974 506c-8 8-22 8-30-2l-432-490v924c0 12-10 22-22 22s-20-10-20-22v-924l-432 490c-8 10-22 10-30 2-10-8-10-20-2-30l468-532c0 0 2 0 2-2 0 0 2-2 4-4 2 0 2 0 2 0 2-2 6-2 8-2 4 0 6 0 10 2 0 0 0 0 0 0 2 2 4 4 6 4 0 2 0 2 0 2l470 532c8 10 6 22-2 30z" />
<glyph unicode="&#x2f;" d="M1022 460c0 0 0 0 0 0 2 4 2 6 2 10 0 2 0 6-2 8 0 0 0 0 0 2-2 2-4 4-4 4-2 2-2 2-2 2l-532 468c-10 8-22 8-30-2-8-8-8-22 2-30l490-432h-924c-12 0-22-8-22-20s10-22 22-22h924l-490-432c-10-8-10-22-2-30 4-4 10-8 16-8 4 0 10 2 14 6l532 470c0 0 0 0 2 0 0 2 2 4 4 6z" />
<glyph unicode="&#x30;" d="M746 490c-152 0-276-124-276-276 0-154 124-278 276-278 154 0 278 124 278 278 0 152-124 276-278 276zM746-22c-128 0-234 106-234 236 0 128 106 234 234 234 130 0 236-106 236-234 0-130-106-236-236-236zM832 234h-64v128c0 12-10 22-22 22s-20-10-20-22v-170h106c12 0 22 10 22 22s-10 20-22 20zM426 448c-180 0-384 62-384 150v86c70-64 214-108 384-108 172 0 316 44 384 108v-108c0-12 10-22 22-22s22 10 22 22v192c0 108-188 192-428 192-238 0-426-84-426-192v-554c0-102 162-182 384-192 0 0 0 0 0 0 12 0 20 10 22 20 0 12-10 22-22 22-210 10-342 86-342 150v106c60-56 174-94 320-104 0 0 0 0 0 0 12 0 22 8 22 20 0 12-8 22-20 22-180 12-322 76-322 148v106c70-64 214-106 384-106 12 0 22 8 22 20 0 12-10 22-22 22zM426 918c182 0 384-62 384-150s-202-150-384-150c-180 0-384 62-384 150 0 88 204 150 384 150z" />
<glyph unicode="&#x31;" d="M746 490c-152 0-276-124-276-276 0-154 124-278 276-278 154 0 278 124 278 278 0 152-124 276-278 276zM746-22c-128 0-234 106-234 236 0 128 106 234 234 234 130 0 236-106 236-234 0-130-106-236-236-236zM762 336l-16 14-100-100c-8-8-8-22 0-30s22-8 30 0l50 48v-162c0-12 8-20 20-20s22 8 22 20v162l48-48c6-4 10-6 16-6s10 2 16 6c8 8 8 22 0 30zM426 448c-180 0-384 60-384 148v86c70-64 214-106 384-106 172 0 316 42 384 106v-106c0-12 10-22 22-22s22 10 22 22v192c0 108-188 192-428 192-238 0-426-84-426-192v-556c0-100 162-180 384-190 0 0 0 0 0 0 12 0 20 8 22 20 0 12-10 22-22 22-210 10-342 84-342 148v106c60-54 174-94 320-104 0 0 0 0 0 0 12 0 22 10 22 20 0 12-8 22-20 24-180 12-322 76-322 146v108c70-64 214-108 384-108 12 0 22 10 22 22 0 12-10 22-22 22zM426 918c226 0 384-80 384-150 0-88-202-150-384-150-180 0-384 62-384 150 0 70 158 150 384 150z" />
<glyph unicode="&#x32;" d="M490 450c-22-2-42-2-64-2-180 0-384 62-384 150v86c70-64 214-108 384-108 172 0 316 44 384 108v-150c0-12 10-22 22-22s22 10 22 22v234c0 108-188 192-428 192-238 0-426-84-426-192v-554c0-108 188-192 426-192 12 0 22 8 22 20 0 12-10 22-22 22-180 0-384 62-384 150v106c70-64 214-106 384-106 12 0 22 8 22 20 0 12-10 22-22 22-180 0-384 62-384 150v106c70-64 214-106 384-106 22 0 44 0 66 2 12 0 20 10 20 22 0 12-10 20-22 20zM426 918c182 0 384-62 384-150s-202-150-384-150c-180 0-384 62-384 150 0 88 204 150 384 150zM1020-30l-232 466c-8 14-32 14-40 0l-234-470c-4-6-2-14 2-20s10-10 18-10h468c0 0 0 0 2 0 10 0 20 10 20 22 0 4-2 8-4 12zM568-22l200 400 200-400zM746 234v-128c0-12 10-20 22-20s22 8 22 20v128c0 12-10 22-22 22s-22-10-22-22zM790 42c0-12-10-20-22-20s-22 8-22 20c0 12 10 22 22 22 12 0 22-10 22-22z" />
<glyph unicode="&#x33;" d="M746 490c-152 0-276-124-276-276 0-154 124-278 276-278 154 0 278 124 278 278 0 152-124 276-278 276zM746 448c58 0 110-20 150-54l-330-330c-34 40-54 92-54 150 0 128 106 234 234 234zM746-22c-56 0-108 22-150 56l330 330c34-42 56-94 56-150 0-130-106-236-236-236zM426 448c-180 0-384 62-384 150v86c70-64 214-108 384-108 172 0 316 44 384 108v-108c0-12 10-22 22-22s22 10 22 22v192c0 108-188 192-428 192-238 0-426-84-426-192v-554c0-102 162-182 384-192 0 0 0 0 0 0 12 0 20 10 22 20 0 12-10 22-22 22-210 10-342 86-342 150v106c60-56 174-94 320-104 0 0 0 0 0 0 12 0 22 8 22 20 0 12-8 22-20 22-180 12-322 76-322 148v106c70-64 214-106 384-106 12 0 22 8 22 20 0 12-10 22-22 22zM426 918c182 0 384-62 384-150s-202-150-384-150c-180 0-384 62-384 150 0 88 204 150 384 150z" />
<glyph unicode="&#x34;" d="M746 490c-152 0-276-124-276-276 0-154 124-278 276-278 154 0 278 124 278 278 0 152-124 276-278 276zM746-22c-128 0-234 106-234 236 0 128 106 234 234 234 130 0 236-106 236-234 0-130-106-236-236-236zM858 292l-134-148-90 92c-8 8-22 8-30 0s-8-22 0-30l122-124 164 180c8 10 8 24 0 32-10 8-24 6-32-2zM426 448c-180 0-384 62-384 150v86c70-64 214-108 384-108 172 0 316 44 384 108v-108c0-12 10-22 22-22s22 10 22 22v192c0 108-188 192-428 192-238 0-426-84-426-192v-554c0-102 162-182 384-192 0 0 0 0 0 0 12 0 20 10 22 20 0 12-10 22-22 22-210 10-342 86-342 150v106c60-56 174-94 320-104 0 0 0 0 0 0 12 0 22 8 22 20 0 12-8 22-20 22-180 12-322 76-322 148v106c70-64 214-106 384-106 12 0 22 8 22 20 0 12-10 22-22 22zM426 918c182 0 384-62 384-150s-202-150-384-150c-180 0-384 62-384 150 0 88 204 150 384 150z" />
<glyph unicode="&#x35;" d="M746 490c-152 0-276-124-276-276 0-154 124-278 276-278 154 0 278 124 278 278 0 152-124 276-278 276zM746-22c-128 0-234 106-234 236 0 128 106 234 234 234 130 0 236-106 236-234 0-130-106-236-236-236zM816 208l-48-50v162c0 12-10 22-22 22s-20-10-20-22v-162l-50 50c-8 8-22 8-30 0-8-10-8-22 0-32l86-84c0 0 0 0 0 0l14-16 16 16c0 0 0 0 0 0l86 84c8 10 8 22 0 32-10 8-22 8-32 0zM426 448c-180 0-384 60-384 148v86c70-64 214-106 384-106 172 0 316 42 384 106v-106c0-12 10-22 22-22s22 10 22 22v192c0 108-188 192-428 192-238 0-426-84-426-192v-556c0-100 162-180 384-190 0 0 0 0 0 0 12 0 20 8 22 20 0 12-10 22-22 22-210 10-342 84-342 148v106c60-54 174-94 320-104 0 0 0 0 0 0 12 0 22 10 22 20 0 12-8 22-20 24-180 12-322 76-322 146v108c70-64 214-108 384-108 12 0 22 10 22 22 0 12-10 22-22 22zM426 918c226 0 384-80 384-150 0-88-202-150-384-150-180 0-384 62-384 150 0 70 158 150 384 150z" />
<glyph unicode="&#x36;" d="M1018 336l-106 106c-10 8-22 8-32 0l-320-320c0-2-2-4-4-6 0-2 0-2 0-2 0 0 0 0 0-2l-44-148c-2-8 0-16 6-22 4-4 10-6 16-6 2 0 4 0 6 0l148 44c0 0 2 0 2 0s0 0 2 0c2 2 4 4 6 4l320 320c4 4 6 10 6 16s-2 12-6 16zM682 30l-76 76 204 206 78-78zM586 66l56-56-78-22zM918 264l-78 78 56 54 76-76zM426 448c-180 0-384 62-384 150v86c70-64 214-108 384-108 172 0 316 44 384 108v-108c0-12 10-22 22-22s22 10 22 22v192c0 108-188 192-428 192-238 0-426-84-426-192v-554c0-102 162-182 384-192 0 0 0 0 0 0 12 0 20 10 22 20 0 12-10 22-22 22-210 10-342 86-342 150v106c60-56 174-94 320-104 0 0 0 0 0 0 12 0 22 8 22 20 0 12-8 22-20 22-180 12-322 76-322 148v106c70-64 214-106 384-106 12 0 22 8 22 20 0 12-10 22-22 22zM426 918c182 0 384-62 384-150s-202-150-384-150c-180 0-384 62-384 150 0 88 204 150 384 150z" />
<glyph unicode="&#x37;" d="M746 490c-152 0-276-124-276-276 0-154 124-278 276-278 154 0 278 124 278 278 0 152-124 276-278 276zM746-22c-128 0-234 106-234 236 0 128 106 234 234 234 130 0 236-106 236-234 0-130-106-236-236-236zM776 214l92 90c8 8 8 22 0 30-10 8-22 8-30 0l-92-90-90 90c-8 8-22 8-30 0s-8-22 0-30l90-90-90-92c-8-8-8-20 0-30 4-4 10-6 16-6 4 0 10 2 14 6l90 92 92-92c4-4 8-6 14-6s12 2 16 6c8 10 8 22 0 30zM426 448c-180 0-384 60-384 148v86c70-64 214-106 384-106 172 0 316 42 384 106v-106c0-12 10-22 22-22s22 10 22 22v192c0 108-188 192-428 192-238 0-424-84-426-190 0-2 0-2 0-2v-556c0-100 162-180 384-190 0 0 0 0 0 0 12 0 20 8 22 20 0 12-10 22-22 22-210 10-342 84-342 148v106c60-54 174-94 320-104 0 0 0 0 0 0 12 0 22 10 22 20 0 12-8 22-20 24-180 12-322 76-322 146v108c70-64 214-108 384-108 12 0 22 10 22 22 0 12-10 22-22 22zM426 918c226 0 384-80 384-150 0-88-202-150-384-150-180 0-384 62-384 150 0 70 158 150 384 150z" />
<glyph unicode="&#x38;" d="M746 490c-152 0-276-124-276-276 0-154 124-278 276-278 154 0 278 124 278 278 0 152-124 276-278 276zM746-22c-128 0-234 106-234 236 0 128 106 234 234 234 130 0 236-106 236-234 0-130-106-236-236-236zM854 234h-214c-12 0-22-8-22-20s10-22 22-22h214c12 0 20 10 20 22s-8 20-20 20zM426 448c-180 0-384 60-384 148v86c70-64 214-106 384-106 172 0 316 42 384 106v-106c0-12 10-22 22-22s22 10 22 22v192c0 108-188 192-428 192-238 0-426-84-426-192v-556c0-100 162-180 384-190 0 0 0 0 0 0 12 0 20 8 22 20 0 12-10 22-22 22-210 10-342 84-342 148v106c60-54 174-94 320-104 0 0 0 0 0 0 12 0 22 10 22 20 0 12-8 22-20 24-180 12-322 76-322 146v108c70-64 214-108 384-108 12 0 22 10 22 22 0 12-10 22-22 22zM426 918c226 0 384-80 384-150 0-88-202-150-384-150-180 0-384 62-384 150 0 70 158 150 384 150z" />
<glyph unicode="&#x39;" d="M426 448c-180 0-384 62-384 150v86c70-64 214-108 384-108 172 0 316 44 384 108v-108c0-12 10-22 22-22s22 10 22 22v192c0 108-188 192-428 192-238 0-426-84-426-192v-554c0-102 162-182 384-192 0 0 0 0 0 0 12 0 20 10 22 20 0 12-10 22-22 22-210 10-342 86-342 150v106c60-56 174-94 320-104 0 0 0 0 0 0 12 0 22 8 22 20 0 12-8 22-20 22-180 12-322 76-322 148v106c70-64 214-106 384-106 12 0 22 8 22 20 0 12-10 22-22 22zM426 918c182 0 384-62 384-150s-202-150-384-150c-180 0-384 62-384 150 0 88 204 150 384 150zM1002 320h-64v22c0 82-66 148-148 148s-150-66-150-148v-22h-64c-12 0-22-10-22-22v-340c0-12 10-22 22-22h426c12 0 22 10 22 22v340c0 12-10 22-22 22zM682 342c0 58 48 106 108 106 58 0 106-48 106-106v-22h-214zM982-22h-384v300h384zM768 134v-70c0-12 10-22 22-22s20 10 20 22v70c14 8 22 20 22 36 0 24-20 44-42 44-24 0-44-20-44-44 0-16 10-28 22-36z" />
<glyph unicode="&#x3a;" d="M1002 490h-924l490 432c10 8 10 22 2 30-8 10-20 10-30 2l-532-468c0 0 0-2-2-2 0 0-2-2-4-4 0-2 0-2 0-2-2-2-2-6-2-8 0-4 0-6 2-10 0 0 0 0 0 0 2-2 4-4 4-6 2 0 2 0 2 0l532-470c4-4 10-6 14-6 6 0 12 4 16 8 8 8 8 22-2 30l-490 432h924c12 0 22 10 22 22s-10 20-22 20z" />
<glyph unicode="&#x3b;" d="M962 556h-322l-116 324c-4 8-10 12-18 12-6 0-12-4-18-12l-116-324h-322c-6 0-10-2-16-6-10-12-8-22 2-30l268-210-114-346c-2-4-2-8 2-14 6-16 14-18 26-8l288 210 288-210c2-2 6-4 10-4 12 4 20 12 20 26l-116 346 268 210c4 4 6 8 8 14-2 14-8 22-22 22zM672 332c-4-6-6-12-6-22l100-300-248 184c-4 2-8 4-12 4-2 0-6-2-12-4l-248-184 100 300c0 8 0 16-6 22l-232 182h278c6 2 14 6 20 14l100 284 100-284c4-8 10-12 20-14h280zM992 752l-90 88 90 92c6 6 6 12 0 22-4 4-10 6-14 6-2 0-8 0-12-6l-88-88-92 90c-4 2-6 4-10 4l-8-2-4-2c-6-6-6-10-6-14s2-8 4-12l90-90-90-90c-2-4-4-6-4-10v0-2c0-10 8-16 18-16h8l94 94 90-92 6-2h12l4 2c6 6 6 10 6 14s-2 10-4 14z" />
<glyph unicode="&#x3e;" d="M512 960c-282 0-512-230-512-512s230-512 512-512c282 0 512 230 512 512 0 282-230 512-512 512zM512-22c-258 0-470 212-470 470s212 470 470 470c258 0 470-212 470-470 0-258-212-470-470-470zM682 576c0 94-76 170-170 170s-170-76-170-170c0-60 30-116 82-146l-40-256c0-6 2-12 6-18 4-4 10-6 16-6h212c6 0 12 2 16 6 4 6 6 12 6 18l-40 256c52 30 82 86 82 146zM568 460c-8-4-14-12-12-22l38-246h-164l38 246c2 10-4 18-12 22-44 22-72 66-72 116 0 70 58 128 128 128 70 0 128-58 128-128 0-50-28-94-72-116z" />
<glyph unicode="&#x41;" d="M894 690c0 4-2 6-4 8l-256 256c-2 2-4 4-8 4-2 2-4 2-8 2h-468c-12 0-22-10-22-22v-980c0-12 10-22 22-22h724c12 0 22 10 22 22v724c0 4 0 6-2 8zM640 888l184-184h-184zM170-22v940h428v-236c0-12 8-20 20-20h236v-684zM634 528c-8 8-22 8-30 0-8-10-8-22 0-32l156-154-156-156c-8-8-8-22 0-30 4-4 10-6 14-6 6 0 12 2 16 6l170 170c8 8 8 22 0 30zM264 342l156 154c8 10 8 22 0 32-8 8-22 8-30 0l-170-172c-8-8-8-22 0-30l170-170c4-4 10-6 16-6 4 0 10 2 14 6 8 8 8 22 0 30z" />
<glyph unicode="&#x42;" d="M42 918h428v-192c0-12 8-22 20-22h192v-150h44v172c0 0 0 0 0 0s0 0 0 0c0 2-2 4-2 6 0 0 0 0 0 2-2 2-4 4-6 6l-212 214c-2 2-4 4-8 4-2 2-4 2-8 2h-468c-12 0-22-10-22-22v-896c0-12 10-20 22-20h426v42h-406zM512 888l140-142h-140zM746 490c-152 0-276-124-276-276 0-154 124-278 276-278 154 0 278 124 278 278 0 152-124 276-278 276zM746-22c-128 0-234 106-234 236 0 128 106 234 234 234 130 0 236-106 236-234 0-130-106-236-236-236zM870 298l-148-162-100 100c-8 8-22 8-30 0s-8-22 0-30l132-132 178 194c8 10 8 22-2 30-8 8-22 8-30 0z" />
<glyph unicode="&#x43;" d="M848 784l-172 170c-4 4-10 6-14 6h-556c-12 0-20-10-20-22v-980c0-12 8-22 20-22h726c12 0 22 10 22 22v810c0 6-2 12-6 16zM342 918h170v-462l-70 72c-8 8-22 8-30 0l-70-72zM810-22h-682v940h170v-512c0-10 6-18 14-20 8-4 16-2 24 4l90 92 92-92c4-4 10-6 16-6 2 0 4 0 8 2 8 2 12 10 12 20v512h98l158-158z" />
<glyph unicode="&#x44;" d="M42 918h428v-192c0-12 8-22 20-22h192v-150h44v172c0 0 0 0 0 0s0 0 0 0c0 2-2 4-2 6 0 0 0 0 0 2-2 2-4 4-6 6l-212 214c-2 2-4 4-8 4-2 2-4 2-8 2h-468c-12 0-22-10-22-22v-896c0-12 10-20 22-20h404v42h-384zM512 888l140-142h-140zM746 490c-152 0-276-124-276-276 0-154 124-278 276-278 154 0 278 124 278 278 0 152-124 276-278 276zM512 214c0 128 106 234 234 234 58 0 110-20 150-54l-330-330c-34 40-54 92-54 150zM746-22c-56 0-108 22-150 56l330 330c34-42 56-94 56-150 0-130-106-236-236-236z" />
<glyph unicode="&#x45;" d="M490 704h192v-150h44v172c0 2-2 4-2 8-2 2-2 4-4 6l-214 214c-2 2-4 4-8 4-2 2-4 2-8 2h-468c-12 0-22-10-22-22v-896c0-12 10-20 22-20h426v42h-406v854h428v-192c0-12 8-22 20-22zM512 888l140-142h-140zM1020-30l-254 508c-8 16-32 16-38 0l-256-512c-4-6-4-14 0-20s12-10 18-10h512c0 0 0 0 2 0 10 0 20 10 20 22 0 4-2 8-4 12zM526-22l220 444 222-444zM726 260v-140c0-12 8-22 20-22s22 10 22 22v140c0 12-10 22-22 22s-20-10-20-22zM770 50c0-12-10-22-24-22-12 0-22 10-22 22 0 14 10 24 22 24 14 0 24-10 24-24z" />
<glyph unicode="&#x46;" d="M42 918h428v-192c0-12 8-22 20-22h192v-150h44v172c0 2-2 4-2 8-2 2-2 4-4 6l-214 214c-2 2-4 4-8 4-2 2-4 2-8 2h-468c-12 0-22-10-22-22v-896c0-12 10-20 22-20h426v42h-406zM512 888l140-142h-140zM746 490c-152 0-276-124-276-276 0-154 124-278 276-278 154 0 278 124 278 278 0 152-124 276-278 276zM746-22c-128 0-234 106-234 236 0 128 106 234 234 234 130 0 236-106 236-234 0-130-106-236-236-236zM864 234h-96v96c0 12-10 22-22 22s-20-10-20-22v-96h-96c-12 0-22-8-22-20s10-22 22-22h96v-96c0-10 8-20 20-20s22 10 22 20v96h96c10 0 20 10 20 22s-10 20-20 20z" />
<glyph unicode="&#x47;" d="M894 690c0 4-2 6-4 8l-256 256c-2 2-4 4-8 4-2 2-4 2-8 2h-468c-12 0-22-10-22-22v-980c0-12 10-22 22-22h724c12 0 22 10 22 22v724c0 4 0 6-2 8zM640 888l184-184h-184zM170-22v940h428v-236c0-12 8-20 20-20h236v-684z" />
<glyph unicode="&#x48;" d="M894 690c0 4-2 6-4 8l-256 256c-2 2-4 4-8 4-2 2-4 2-8 2h-468c-12 0-22-10-22-22v-980c0-12 10-22 22-22h724c12 0 22 10 22 22v724c0 4 0 6-2 8zM640 888l184-184h-184zM170-22v940h428v-236c0-12 8-20 20-20h236v-684zM320 618h192c12 0 22 10 22 22s-10 22-22 22h-192c-12 0-22-10-22-22s10-22 22-22zM704 534h-384c-12 0-22-10-22-22s10-22 22-22h384c12 0 22 10 22 22s-10 22-22 22zM704 406h-384c-12 0-22-10-22-22s10-22 22-22h384c12 0 22 10 22 22s-10 22-22 22zM704 278h-384c-12 0-22-10-22-22s10-22 22-22h384c12 0 22 10 22 22s-10 22-22 22zM704 150h-384c-12 0-22-10-22-22s10-22 22-22h384c12 0 22 10 22 22s-10 22-22 22z" />
<glyph unicode="&#x49;" d="M42 918h428v-192c0-12 8-22 20-22h192v-150h44v172c0 0 0 0 0 0s0 0 0 0c0 2-2 2-2 4 0 2 0 2 0 4-2 2-4 4-6 6l-212 214c-2 2-4 4-8 4-2 2-4 2-8 2h-468c-12 0-22-10-22-22v-896c0-12 10-20 22-20h426v42h-406zM512 888l140-142h-140zM746 490c-152 0-276-124-276-276 0-154 124-278 276-278 154 0 278 124 278 278 0 152-124 276-278 276zM746-22c-128 0-234 106-234 236 0 128 106 234 234 234 130 0 236-106 236-234 0-130-106-236-236-236zM864 234h-234c-12 0-22-8-22-20s10-22 22-22h234c10 0 20 10 20 22s-10 20-20 20z" />
<glyph unicode="&#x4a;" d="M894 690c0 4-2 6-4 8l-256 256c-2 2-4 4-8 4-2 2-4 2-8 2h-468c-12 0-22-10-22-22v-980c0-12 10-22 22-22h724c12 0 22 10 22 22v724c0 4 0 6-2 8zM640 888l184-184h-184zM170-22v940h428v-236c0-12 8-20 20-20h236v-684zM704 534h-170c-12 0-22-10-22-22s10-22 22-22h170c12 0 22 10 22 22s-10 22-22 22zM704 362h-170c-12 0-22-8-22-20s10-22 22-22h170c12 0 22 10 22 22s-10 20-22 20zM704 192h-170c-12 0-22-10-22-22s10-20 22-20h170c12 0 22 8 22 20s-10 22-22 22zM432 634l-90-92-50 50c-8 8-22 8-30 0-8-10-8-22 0-32l64-64c4-4 10-6 16-6 4 0 10 2 14 6l108 108c8 8 8 22 0 30-10 8-22 8-32 0zM432 442l-90-92-50 50c-8 8-22 8-30 0-8-10-8-22 0-32l64-64c4-4 10-6 16-6 4 0 10 2 14 6l108 108c8 8 8 22 0 30-10 8-22 8-32 0zM432 250l-90-92-50 50c-8 8-22 8-30 0-8-10-8-22 0-32l64-64c4-4 10-6 16-6 4 0 10 2 14 6l108 108c8 8 8 22 0 30-10 8-22 8-32 0z" />
<glyph unicode="&#x4b;" d="M682 534h44v192c0 0 0 0 0 0s0 0 0 0c0 2-2 2-2 4 0 2 0 2 0 4-2 2-4 4-6 6l-212 214c-2 2-4 4-8 4-2 2-4 2-8 2h-468c-12 0-22-10-22-22v-896c0-12 10-20 22-20h426v42h-406v854h428v-192c0-12 8-22 20-22h192zM512 888l140-142h-140zM1002 278h-42v20c0 82-66 150-150 150-82 0-148-68-148-150v-20h-44c-12 0-20-10-20-22v-298c0-12 8-22 20-22h384c12 0 22 10 22 22v298c0 12-10 22-22 22zM704 298c0 60 48 108 106 108 60 0 108-48 108-108v-20h-214zM982-22h-342v256h342zM810 192c-22 0-42-20-42-42 0-16 10-30 22-38 0-2 0-4 0-6v-64c0-12 8-20 20-20s22 8 22 20v64c0 2 0 4-2 6 14 8 24 22 24 38 0 22-20 42-44 42z" />
<glyph unicode="&#x4c;" d="M682 534h44v192c0 2-2 4-2 8-2 2-2 4-4 6l-214 214c-2 2-4 4-8 4-2 2-4 2-8 2h-468c-12 0-22-10-22-22v-896c0-12 10-20 22-20h426v42h-406v854h428v-192c0-12 8-22 20-22h192zM512 888l140-142h-140zM1002 150h-170c-12 0-22-10-22-22v-170c0-12 10-22 22-22h170c12 0 22 10 22 22v170c0 12-10 22-22 22zM982-22h-128v128h128zM746 150h-170c-12 0-22-10-22-22v-170c0-12 10-22 22-22h170c12 0 22 10 22 22v170c0 12-10 22-22 22zM726-22h-128v128h128zM682 384v-170c0-12 10-22 22-22h170c12 0 22 10 22 22v170c0 12-10 22-22 22h-170c-12 0-22-10-22-22zM726 362h128v-128h-128z" />
<glyph unicode="&#x4d;" d="M938 734c-2 2-4 4-6 6l-212 214c-2 2-6 4-8 4-2 2-6 2-8 2h-384c-12 0-22-10-22-22v-106h-234c-12 0-22-10-22-22v-852c0-12 10-22 22-22h598c12 0 20 10 20 22v106h236c12 0 20 10 20 22v640c0 2 0 4 0 8zM726 888l140-142h-140zM640-22h-554v812h340v-192c0-12 10-22 22-22h192zM610 618h-140v142zM682 106v492c0 2 0 4 0 8-2 2-4 4-6 6l-212 214c-2 2-6 4-8 4-2 2-6 2-8 2h-106v86h340v-192c0-12 10-22 22-22h192v-598z" />
<glyph unicode="&#x4e;" d="M490 960c-270 0-490-220-490-490 0-130 50-254 144-346 92-94 214-146 346-146 0 0 0 0 0 0 270 0 490 220 492 490 0 270-220 492-492 492zM490 22v0c-248 0-448 202-448 448 2 246 202 448 450 448 246-2 448-202 446-450 0-246-200-446-448-446zM746 490h-234v236c0 12-10 20-22 20s-20-8-20-20v-236h-240c0 0 0 0 0 0-12 0-20-8-20-20 0-12 8-22 20-22h240v-234c0-12 8-22 20-22s22 10 22 22v234h234c12 0 22 10 22 20 0 12-10 22-22 22z" />
<glyph unicode="&#x4f;" d="M490 960c-270 0-490-220-490-490 0-130 50-254 144-346 92-94 214-146 346-146 0 0 0 0 0 0 270 0 490 220 492 490 0 270-220 492-492 492zM490 22v0c-120 0-232 46-316 132-86 84-132 196-132 316 2 246 202 448 450 448 246-2 448-202 446-450 0-246-200-446-448-446zM688 666c-10 8-22 8-32 0l-166-166-164 166c-10 8-22 8-32 0-8-8-8-22 0-30l166-166-166-166c-8-8-8-22 0-30 4-4 10-6 16-6 4 0 10 2 14 6l166 166 166-168c4-4 10-6 16-6 4 0 10 2 14 6 8 10 8 22 0 30l-166 168 168 164c8 10 8 22 0 32z" />
<glyph unicode="&#x50;" d="M490 960c-270 0-490-220-490-490 0-130 50-254 144-346 92-94 214-146 346-146 0 0 0 0 0 0 270 0 490 220 492 490 0 270-220 492-492 492zM490 22v0c-120 0-232 46-316 132-86 84-132 196-132 316 2 246 202 448 450 448 246-2 448-202 446-450 0-246-200-446-448-446zM746 490h-512c0 0 0 0 0 0-12 0-20-8-20-20 0-12 8-22 20-22h512c12 0 22 10 22 20 0 12-10 22-22 22z" />
<glyph unicode="&#x51;" d="M712.315 800.278c-14.73 8.837-32.404 0-41.241-14.73-5.891-17.675 2.946-35.349 17.675-41.241 141.398-58.915 232.719-197.369 232.719-350.549 0-100.158-41.241-194.422-111.94-265.121-70.7-70.7-164.964-108.993-265.121-108.993 0 0 0 0-2.946 0-206.205 0-374.115 167.911-374.115 377.061 0 150.236 91.319 288.688 229.772 347.602 17.675 5.891 23.568 23.568 17.675 41.241-8.837 14.73-26.511 23.568-41.241 14.73-164.964-67.754-271.013-226.827-271.013-403.573 0-241.555 197.369-441.87 438.924-441.87 0 0 2.946 0 2.946 0 114.886 0 226.827 47.133 309.309 129.616 82.482 82.482 129.616 191.476 129.616 309.309 0 179.694-106.048 338.767-271.013 406.521zM544.404 458.565v0c17.675 0 29.457 14.73 29.457 32.404l2.946 406.521c0 17.675-14.73 32.404-32.404 32.404 0 0 0 0 0 0-17.675 0-32.404-14.73-32.404-32.404v-406.521c0-17.675 14.73-32.404 32.404-32.404z" />
<glyph unicode="&#x52;" d="M710 612l-304-284-92 92c-8 8-22 8-30 0s-8-22 0-30l106-106c4-4 10-6 16-6 4 0 10 2 14 6l320 298c8 8 8 22 0 30s-20 8-30 0zM512 960c-282 0-512-230-512-512s230-512 512-512c282 0 512 230 512 512 0 282-230 512-512 512zM512-22c-258 0-470 212-470 470s212 470 470 470c258 0 470-212 470-470 0-258-212-470-470-470z" />
<glyph unicode="&#x53;" d="M1002 534h-122c-8 34-18 70-32 98l86 88c4 4 6 8 6 14s-2 12-6 16l-120 120c-8 8-22 8-30 0l-88-86c-28 14-64 24-98 32v122c0 12-10 22-22 22h-128c-12 0-22-10-22-22v-122c-34-8-70-18-98-32l-88 86c-8 8-22 8-30 0l-120-120c-8-8-8-22 0-30l86-88c-14-28-24-64-32-98h-122c-12 0-22-10-22-22v-128c0-12 10-22 22-22h122c8-34 18-70 32-98l-86-88c-4-4-6-8-6-14s2-12 6-16l120-120c8-8 22-8 30 0l88 86c28-14 64-24 98-32v-122c0-12 10-22 22-22h128c12 0 22 10 22 22v122c34 8 70 18 98 32l88-86c8-8 22-8 30 0l120 120c8 8 8 22 0 30l-86 88c14 28 24 64 32 98h122c12 0 22 10 22 22v128c0 12-10 22-22 22zM982 406h-118c-10 0-18-8-20-16-6-24-22-88-40-120-6-8-4-18 2-26l84-82-92-92-82 84c-8 6-18 8-26 2-32-18-96-34-120-40-8-2-16-10-16-20v-118h-84v118c0 10-8 18-16 20-24 6-88 22-120 40-8 6-18 4-26-2l-82-84-92 92 84 82c6 8 8 18 2 26-18 32-34 96-40 120-2 8-10 16-20 16h-118v84h118c10 0 18 8 20 16 6 24 22 88 40 120 6 8 4 18-2 26l-84 82 92 92 82-84c8-6 18-8 26-2 32 18 96 34 118 40 10 2 18 10 18 20v118h84v-118c0-10 8-18 16-20 38-10 92-24 120-40 8-6 18-4 26 2l82 84 92-92-84-82c-6-8-8-18-2-26 18-32 34-96 40-118 2-10 10-18 20-18h118zM512 662c-118 0-214-96-214-214s96-214 214-214c118 0 214 96 214 214 0 118-96 214-214 214zM512 278c-94 0-170 76-170 170s76 170 170 170c94 0 170-76 170-170 0-94-76-170-170-170z" />
<glyph unicode="&#x54;" d="M554 192c0-24-18-42-42-42s-42 18-42 42c0 24 18 42 42 42 24 0 42-18 42-42zM512 960c-282 0-512-230-512-512s230-512 512-512c282 0 512 230 512 512 0 282-230 512-512 512zM512-22c-258 0-470 212-470 470s212 470 470 470c258 0 470-212 470-470 0-258-212-470-470-470zM512 704c-82 0-150-66-150-150 0-12 10-20 22-20 12 0 22 8 22 20 0 60 48 108 106 108 58 0 106-48 106-108 0-58-48-106-106-106-12 0-22-10-22-22v-128c0-12 10-20 22-20s22 8 22 20v108c72 12 128 74 128 148 0 84-68 150-150 150z" />
<glyph unicode="&#x55;" d="M490 960c-270 0-490-220-490-490 0-272 220-492 490-492 272 0 492 220 492 492 0 270-220 490-492 490zM490 22c-246 0-448 200-448 448 0 246 202 448 448 448 248 0 448-202 448-448 0-248-200-448-448-448zM618 192h-106v362c0 12-10 22-22 22h-84c-12 0-22-10-22-22s10-20 22-20h64v-342h-108c-12 0-20-10-20-22s8-20 20-20h256c12 0 22 8 22 20s-10 22-22 22zM448 704c24 0 42 20 42 42 0 24-18 44-42 44-24 0-42-20-42-44 0-22 18-42 42-42zM448 746v0z" />
<glyph unicode="&#x56;" d="M470 570v-326c0-12 8-22 20-22s22 10 22 22v326c0 12-10 20-22 20s-20-8-20-20zM532 100c0-22-18-40-42-40-22 0-40 18-40 40 0 22 18 40 40 40 24 0 42-18 42-40zM978-30l-468 936c-8 14-32 14-38 0l-470-940c-4-6-2-14 2-20s10-10 18-10h938c0 0 0 0 0 0 12 0 22 10 22 22 0 4-2 8-4 12zM56-22l434 870 436-870z" />
<glyph unicode="&#x57;" d="M498 944h-8c-274-4-494-228-490-500 4-270 216-482 482-482h10c130 2 254 56 348 150s144 220 142 350c-6 270-218 482-484 482zM810 142c-86-86-200-134-320-136h-8c-242 0-434 192-440 440-4 246 198 450 450 456h6c244 0 436-194 440-440 2-120-44-234-128-320zM490 368c12 0 22 10 22 22v298c0 12-10 22-22 22s-20-10-20-22v-298c0-12 8-22 20-22zM490 282c0 0 0 0 0 0-24 0-42-20-42-42 0-24 20-42 42-42 0 0 2 0 2 0 22 0 42 20 42 42-2 24-20 42-44 42z" />
<glyph unicode="&#x58;" d="M512 918c-240 0-426-86-426-192v-556c0-108 186-192 426-192s426 84 426 192v556c0 106-186 192-426 192zM896 362c0-88-202-148-384-148s-384 60-384 148v108c68-64 212-108 384-108s316 44 384 108zM896 554c0-88-202-148-384-148s-384 60-384 148v86c68-64 212-106 384-106s316 42 384 106zM512 874c182 0 384-60 384-148s-202-150-384-150c-182 0-384 62-384 150 0 88 202 148 384 148zM512 22c-182 0-384 60-384 148v108c68-64 212-108 384-108s316 44 384 108v-108c0-88-202-148-384-148z" />
<glyph unicode="&#x59;" d="M490 450c-22-2-42-2-64-2-180 0-384 62-384 150v86c70-64 214-108 384-108 172 0 316 44 384 108v-150c0-12 10-22 22-22s22 10 22 22v234c0 108-188 192-428 192-238 0-426-84-426-192v-554c0-108 188-192 426-192 12 0 22 8 22 20 0 12-10 22-22 22-180 0-384 62-384 150v106c70-64 214-106 384-106 12 0 22 8 22 20 0 12-10 22-22 22-180 0-384 62-384 150v106c70-64 214-106 384-106 22 0 44 0 66 2 12 0 20 10 20 22 0 12-10 20-22 20zM426 918c182 0 384-62 384-150s-202-150-384-150c-180 0-384 62-384 150 0 88 204 150 384 150zM1014 148l-34 20c0 8 0 16 0 24s0 16 0 24l34 20c10 6 14 18 8 28l-64 112c-4 4-8 8-14 10-6 0-12 0-16-2l-34-20c-12 8-26 16-40 24v38c0 12-10 22-22 22h-128c-12 0-22-10-22-22v-38c-12-6-26-14-40-24l-34 20c-12 6-24 2-30-8l-64-112c-2-4-4-10-2-16s4-10 10-12l34-20c-2-8-2-16-2-24s0-16 2-24l-34-20c-6-2-8-6-10-12s-2-12 2-16l64-112c6-10 18-14 28-8l36 20c14-10 28-18 40-24v-38c0-12 10-22 22-22h128c12 0 22 10 22 22v38c14 8 28 16 40 24l34-20c6-2 10-2 16-2 6 2 10 6 14 10l64 112c6 10 2 22-8 28zM930 48l-26 16c-8 6-18 4-26-2-14-12-34-24-54-30-8-4-14-12-14-20v-34h-84v34c0 8-6 16-14 20-22 6-40 18-56 30-6 6-16 8-24 2l-28-16-42 74 28 16c8 6 12 14 10 22-2 12-4 22-4 32 0 10 2 20 4 32 2 8-2 16-10 22l-28 16 42 74 28-16c8-6 18-4 24 2 16 12 34 24 56 30 8 4 14 12 14 20v34h84v-34c0-8 6-16 14-20 20-6 40-18 54-30 8-6 18-8 26-2l26 16 44-74-28-16c-8-6-12-14-10-22 2-12 2-22 2-32 0-10 0-20-2-32s2-18 10-22l28-16zM768 298c-60 0-108-48-108-106s48-106 108-106c58 0 106 48 106 106 0 58-48 106-106 106zM768 128c-36 0-64 28-64 64s28 64 64 64c34 0 64-28 64-64 0-36-30-64-64-64z" />
<glyph unicode="&#x5a;" d="M490 450c-22-2-42-2-64-2-180 0-384 62-384 150v86c70-64 214-108 384-108 172 0 316 44 384 108v-150c0-12 10-22 22-22s22 10 22 22v234c0 108-188 192-428 192-238 0-426-84-426-192v-554c0-108 188-192 426-192 12 0 22 8 22 20 0 12-10 22-22 22-180 0-384 62-384 150v106c70-64 214-106 384-106 12 0 22 8 22 20 0 12-10 22-22 22-180 0-384 62-384 150v106c70-64 214-106 384-106 22 0 44 0 66 2 12 0 20 10 20 22 0 12-10 20-22 20zM426 918c182 0 384-62 384-150s-202-150-384-150c-180 0-384 62-384 150 0 88 204 150 384 150zM1002 342c-12 0-20-10-20-22v-42c-40 52-104 84-172 84-90 0-170-56-200-142-4-10 2-22 12-26 12-4 24 2 28 12 24 68 88 114 160 114 62 0 118-34 148-86h-62c-12 0-22-8-22-20s10-22 22-22h128v128c0 12-10 22-22 22zM998 106c-10 4-22-2-26-14-24-68-90-114-162-114-60 0-116 34-146 86h40c12 0 22 10 22 22s-10 20-22 20h-106v-106c0-12 8-22 20-22s22 10 22 22v22c40-54 102-86 170-86 90 0 172 58 202 142 4 12-2 24-14 28z" />
<glyph unicode="&#x61;" d="M1002 832h-276v106c0 12-10 22-22 22h-384c-12 0-22-10-22-22v-106h-276c-12 0-22-10-22-22s10-20 22-20h106v-832c0-12 10-22 22-22h724c12 0 22 10 22 22v832h106c12 0 22 8 22 20s-10 22-22 22zM342 918h340v-86h-340zM854-22h-684v812h684zM320 662c-12 0-22-10-22-22v-490c0-12 10-22 22-22s22 10 22 22v490c0 12-10 22-22 22zM512 662c-12 0-22-10-22-22v-490c0-12 10-22 22-22s22 10 22 22v490c0 12-10 22-22 22zM682 662v-492c0-12 10-20 22-20s22 8 22 20v492c0 12-10 20-22 20s-22-8-22-20z" />
<glyph unicode="&#x62;" d="M512 960c-282 0-512-230-512-512s230-512 512-512c282 0 512 230 512 512 0 282-230 512-512 512zM512-22c-258 0-470 212-470 470s212 470 470 470c258 0 470-212 470-470 0-258-212-470-470-470zM708 736c-58 40-126 60-196 60-192 0-348-156-348-348 0-70 20-138 60-196l14-22 492 492zM246 298c-26 46-40 98-40 150 0 168 138 306 306 306 52 0 104-14 150-40zM800 644l-14 22-492-492 22-14c58-40 126-60 196-60 192 0 348 156 348 348 0 70-20 138-60 196zM512 142c-52 0-104 14-150 40l416 416c26-46 40-98 40-150 0-168-138-306-306-306z" />
<glyph unicode="&#x63;" d="M512 362c-24 0-42-18-42-42 0-16 8-30 20-36v-114c0-12 10-20 22-20s22 8 22 20v114c12 6 20 20 20 36 0 24-18 42-42 42zM768 576v128c0 142-114 256-256 256s-256-114-256-256v-128h-128v-640h768v640zM298 704c0 118 96 214 214 214s214-96 214-214v-128h-428zM854-22h-684v556h684z" />
<glyph unicode="&#x64;" d="M490 284v-114c0-12 10-20 22-20s22 8 22 20v114c12 6 20 20 20 36 0 24-18 42-42 42-24 0-42-18-42-42 0-16 8-30 20-36zM768 576v128c0 142-114 256-256 256s-256-114-256-256h42c0 118 96 214 214 214s214-96 214-214v-128h-598v-640h768v640zM854-22h-684v556h684z" />
<glyph unicode="&#x65;" d="M866 960l-414-414c-42 20-86 30-132 30-176 0-320-144-320-320 0-176 144-320 320-320 176 0 320 144 320 320 0 46-10 90-30 132l124 124h76v76l10 10h76v76l8 8h78v78l42 42v158zM982 820l-44-44v-50h-50l-34-34v-52h-52l-34-34v-52h-52l-156-156 6-14c20-40 32-84 32-128 0-152-126-278-278-278-152 0-278 126-278 278 0 152 126 278 278 278 44 0 88-12 128-32l14-6 422 422h98zM234 256c-46 0-84-38-84-86 0-46 38-84 84-84 48 0 86 38 86 84 0 48-38 86-86 86zM234 128c-22 0-42 20-42 42 0 24 20 44 42 44 24 0 44-20 44-44 0-22-20-42-44-42z" />
<glyph unicode="&#x66;" d="M1018-28l-384 384c0 0 0 0 0 0 56 64 92 148 92 242 0 200-164 362-364 362-200 0-362-162-362-362 0-200 162-364 362-364 94 0 178 36 242 92 0 0 0 0 0 0l384-384c4-4 10-6 14-6 6 0 12 2 16 6 8 8 8 22 0 30zM362 278c-176 0-320 142-320 320 0 176 144 320 320 320 178 0 320-144 320-320 0-178-142-320-320-320z" />
<glyph unicode="&#x67;" d="M1002 704h-234v234c0 12-10 22-22 22h-724c-12 0-22-10-22-22v-724c0-12 10-22 22-22h234v-234c0-12 10-22 22-22h724c12 0 22 10 22 22v724c0 12-10 22-22 22zM42 234v684h684v-214h-448c-12 0-22-10-22-22v-448zM982-22h-684v684h684z" />
<glyph unicode="&#x68;" d="M1002 704h-234v234c0 12-10 22-22 22h-724c-12 0-22-10-22-22v-724c0-12 10-22 22-22h234v-234c0-12 10-22 22-22h724c12 0 22 10 22 22v724c0 12-10 22-22 22zM42 918h684v-684h-684zM982-22h-684v214h448c12 0 22 10 22 22v448h214z" />
<glyph unicode="&#x69;" d="M810 554h-198l-80 200c-4 8-12 14-20 14s-16-6-20-14l-80-200h-198c-10 0-18-4-20-14-4-8-2-16 6-22l160-142-60-222c-2-8 0-18 8-22 8-6 18-6 26 0l178 140 178-140c4-2 10-4 14-4s8 2 12 4 12 14 8 22l-60 222 160 142c8 6 10 14 6 22-2 10-10 14-20 14zM626 400c-6-6-8-14-6-22l46-172-140 110c-4 2-10 4-14 4s-10-2-14-4l-140-110 46 172c2 8 0 16-6 22l-128 112h156c10 0 18 6 20 14l66 164 66-164c2-8 10-14 20-14h156zM512 960c-282 0-512-230-512-512s230-512 512-512c282 0 512 230 512 512 0 282-230 512-512 512zM512-22c-258 0-470 212-470 470s212 470 470 470c258 0 470-212 470-470 0-258-212-470-470-470z" />
<glyph unicode="&#x6a;" d="M1022 582c-2 10-10 16-20 16h-346l-124 348c-2 8-10 14-20 14s-18-6-20-14l-124-348h-346c-10 0-18-6-20-16-4-8 0-18 6-22l288-226-124-370c-4-8 0-18 8-24 6-6 18-6 24 0l308 226 308-226c4-2 8-4 12-4s8 2 12 4c8 6 12 16 8 24l-124 370 288 226c8 4 10 14 6 22zM690 358c-6-6-10-14-6-24l106-320-266 196c-4 2-8 4-12 4s-8-2-12-4l-266-196 106 320c4 10 0 18-6 24l-250 196h300c10 0 18 6 20 14l108 306 108-306c2-8 10-14 20-14h300z" />
<glyph unicode="&#x6b;" d="M512 960c-282 0-512-230-512-512s230-512 512-512c104 0 204 30 290 90 10 6 12 20 4 28-6 10-20 12-28 6-78-54-170-82-266-82-258 0-470 212-470 470 0 258 212 470 470 470 258 0 470-212 470-470v-42c0-72-58-128-128-128-72 0-128 56-128 128v42c0 118-96 214-214 214s-214-96-214-214c0-118 96-214 214-214 78 0 146 44 184 106 26-62 86-106 158-106 94 0 170 78 170 172v42c0 282-230 512-512 512zM512 278c-94 0-170 76-170 170s76 170 170 170c94 0 170-76 170-170 0-94-76-170-170-170z" />
<glyph unicode="&#x6c;" d="M938 746h-852c-48 0-86-38-86-84v-512c0-48 38-86 86-86h852c48 0 86 38 86 86v512c0 46-38 84-86 84zM982 150c0-24-20-44-44-44h-852c-24 0-44 20-44 44v512c0 22 20 42 44 42h852c24 0 44-20 44-42zM892 566c-6 10-20 12-28 6l-352-226-352 226c-8 6-22 4-28-6s-4-22 6-30l362-234c4-2 8-4 12-4s8 2 12 4l362 234c10 8 12 20 6 30zM288 338l-150-84c-10-6-14-20-8-30 4-6 12-10 20-10 2 0 6 0 10 2l150 86c10 6 14 18 8 28s-20 14-30 8zM886 254l-150 84c-10 6-24 2-30-8s-2-22 8-28l150-86c4-2 8-2 10-2 8 0 16 4 20 10 6 10 2 24-8 30z" />
<glyph unicode="&#x6d;" d="M490 960c-270 0-490-220-490-490 0-272 220-492 490-492 272 0 492 220 492 492 0 270-220 490-492 490zM490 22c-246 0-448 200-448 448 0 246 202 448 448 448 248 0 448-202 448-448 0-248-200-448-448-448zM506 762c-2 2-4 4-8 4-4 2-10 2-16 0-2 0-4-2-6-4l-236-234c-8-10-8-22 0-32 10-8 22-8 32 0l198 200v-504c0-12 8-22 20-22s22 10 22 22v504l198-200c4-4 10-6 16-6 4 0 10 2 14 6 8 10 8 22 0 32z" />
<glyph unicode="&#x6e;" d="M860 178l-198 72v98c60 50 100 134 100 228 0 152-104 278-234 278-130 0-234-126-234-278 0-100 44-188 112-236v-90l-200-72c-60-20-100-78-100-140v-102h854v102c0 62-40 120-100 140zM528 810c94 0 172-82 188-192 0 0 0 0 0 0-62-12-100 8-136 72l-20 34-18-34c-20-38-86-72-142-72-22 0-40 4-58 12 20 104 96 180 186 180zM336 576c0 4 0 6 0 10 20-6 42-10 64-10 58 0 122 28 160 66 34-48 74-70 124-70 12 0 24 2 36 4 0-130-86-234-192-234-106 0-192 104-192 234zM918-22h-768v60c0 44 28 86 70 100l228 82v96c26-12 52-18 80-18 32 0 62 8 90 22v-100l228-82c42-14 72-56 72-100z" />
<glyph unicode="&#x6f;" d="M490 960c-270 0-490-220-490-490 0-272 220-492 490-492 272 0 492 220 492 492 0 270-220 490-492 490zM490 22c-246 0-448 200-448 448 0 246 202 448 448 448 248 0 448-202 448-448 0-248-200-448-448-448zM710 442l-198-198v502c0 12-10 22-22 22s-20-10-20-22v-502l-198 198c-10 8-22 8-32 0-8-8-8-22 0-30l236-236c2-2 4-2 6-4 4 0 6-2 8-2 4 0 6 2 8 2 4 2 6 2 8 4l234 236c8 8 8 22 0 30s-22 8-30 0z" />
<glyph unicode="&#x70;" d="M894 690c0 4-2 6-4 8l-256 256c-2 2-4 4-8 4-2 2-4 2-8 2h-468c-12 0-22-10-22-22v-980c0-12 10-22 22-22h724c12 0 22 10 22 22v724c0 4 0 6-2 8zM640 888l184-184h-184zM170-22v940h428v-236c0-12 8-20 20-20h236v-684zM256 618v-554h512v554zM426 576v-86h-128v86zM298 320h128v-86h-128zM470 320h256v-86h-256zM726 362h-256v86h256zM426 362h-128v86h128zM298 192h128v-86h-128zM470 106v86h256v-86zM726 490h-256v86h256z" />
<glyph unicode="&#x71;" d="M490 704h192v-214h44v236c0 2-2 4-2 8-2 2-2 4-4 6l-214 214c-2 2-4 4-8 4-2 2-4 2-8 2h-468c-12 0-22-10-22-22v-896c0-12 10-20 22-20h468v42h-448v854h428v-192c0-12 8-22 20-22zM512 888l140-142h-140zM810 320c54 0 102-24 134-64h-70c-12 0-20-10-20-22s8-20 20-20h128v128c0 12-8 20-20 20s-22-8-22-20v-40c-40 38-92 60-150 60-116 0-212-96-212-212h42c0 94 76 170 170 170zM982 150c0-94-78-172-172-172-52 0-100 24-132 64h48c12 0 20 10 20 22s-8 22-20 22h-108v-108c0-12 10-20 22-20s22 8 22 20v20c38-40 92-62 148-62 118 0 214 96 214 214z" />
<glyph unicode="&#x72;" d="M682 534h44v192c0 2-2 4-2 8-2 2-2 4-4 6l-214 214c-2 2-4 4-8 4-2 2-4 2-8 2h-468c-12 0-22-10-22-22v-896c0-12 10-20 22-20h448v42h-428v854h428v-192c0-12 8-22 20-22h192zM512 888l140-142h-140zM1018-28l-136 136c26 32 40 70 40 114 0 100-82 184-184 184-100 0-184-84-184-184 0-102 84-184 184-184 44 0 82 14 114 40l136-136c4-4 10-6 14-6 6 0 12 2 16 6 8 8 8 22 0 30zM598 222c0 78 62 140 140 140s142-62 142-140c0-78-64-142-142-142-78 0-140 64-140 142z" />
<glyph unicode="&#x73;" d="M682 576h44v150c0 2-2 4-2 8-2 2-2 4-4 6l-214 214c-2 2-4 4-8 4-2 2-4 2-8 2h-468c-12 0-22-10-22-22v-896c0-12 10-20 22-20h362v42h-342v854h428v-192c0-12 8-22 20-22h192zM512 888l140-142h-140zM1014 148l-34 20c0 8 0 16 0 24s0 16 0 24l34 20c4 2 8 6 10 12 0 6 0 12-2 16l-64 112c-4 4-8 8-14 10-6 0-12 0-16-2l-34-20c-12 8-26 16-40 24v38c0 12-10 22-22 22h-128c-12 0-22-10-22-22v-38c-12-6-26-14-40-24l-34 20c-12 6-24 2-30-8l-64-112c-6-10-2-22 8-28l34-20c-2-8-2-16-2-24s0-16 2-24l-34-20c-10-6-14-18-8-28l64-112c6-10 18-14 28-8l36 20c14-10 28-18 40-24v-38c0-12 10-22 22-22h128c12 0 22 10 22 22v38c14 8 28 16 40 24l34-20c6-2 10-2 16-2 6 2 10 6 14 10l64 112c6 10 2 22-8 28zM930 48l-26 16c-8 6-18 4-26-2-14-12-34-24-54-30-8-4-14-12-14-20v-34h-84v34c0 8-6 16-14 20-22 6-40 18-56 30-6 6-16 8-24 2l-28-16-42 74 28 16c8 6 12 14 10 22-2 12-4 22-4 32 0 10 2 20 4 32 2 8-2 16-10 22l-28 16 42 74 28-16c8-6 18-4 24 2 16 12 34 24 56 30 8 4 14 12 14 20v34h84v-34c0-8 6-16 14-20 20-6 40-18 54-30 8-6 18-8 26-2l26 16 44-74-28-16c-8-6-12-14-10-22 2-12 2-22 2-32 0-10 0-20-2-32s2-18 10-22l28-16zM768 298c-60 0-108-48-108-106s48-106 108-106c58 0 106 48 106 106 0 58-48 106-106 106zM768 128c-36 0-64 28-64 64s28 64 64 64c34 0 64-28 64-64 0-36-30-64-64-64z" />
<glyph unicode="&#x74;" d="M894 690c0 4-2 6-4 8l-256 256c-2 2-4 4-8 4-2 2-4 2-8 2h-340c-12 0-22-10-22-22v-106h-106c-12 0-22-10-22-22v-852c0-12 10-22 22-22h596c12 0 22 10 22 22v106h106c12 0 22 10 22 22v596c0 4 0 6-2 8zM640 888l184-184h-184zM726-22h-556v812h86v-704c0-12 10-22 22-22h448zM298 106v812h300v-236c0-12 8-20 20-20h236v-556z" />
<glyph unicode="&#x75;" d="M894 690c0 4-2 6-4 8l-256 256c-2 2-4 4-8 4-2 2-4 2-8 2h-468c-12 0-22-10-22-22v-980c0-12 10-22 22-22h724c12 0 22 10 22 22v724c0 4 0 6-2 8zM640 888l184-184h-184zM170-22v940h428v-236c0-12 8-20 20-20h236v-684zM704 534h-128c-12 0-22-10-22-22v-234h-84v64c0 12-10 20-22 20h-106v256c0 12-10 22-22 22s-22-10-22-22v-490c0-12 10-22 22-22h384c12 0 22 10 22 22v384c0 12-10 22-22 22zM598 490h84v-340h-84zM554 234v-84h-84v84zM342 320h84v-170h-84z" />
<glyph unicode="&#x76;" d="M894 690c0 4-2 6-4 8l-256 256c-2 2-4 4-8 4-2 2-4 2-8 2h-468c-12 0-22-10-22-22v-980c0-12 10-22 22-22h724c12 0 22 10 22 22v724c0 4 0 6-2 8zM640 888l184-184h-184zM170-22v940h428v-236c0-12 8-20 20-20h236v-684zM746 150h-448v98l152 152 114-76c8-6 20-4 28 2l160 172c8 8 8 22-2 30-8 8-22 8-30-2l-148-156-112 74c-8 6-20 4-28-2l-134-134v310c0 12-8 22-20 22s-22-10-22-22v-362c0 0 0 0 0 0v-128c0-12 10-22 22-22h468c12 0 22 10 22 22s-10 22-22 22z" />
<glyph unicode="&#x77;" d="M682 534h44v192c0 0 0 0 0 0s0 0 0 0-2 2-2 2c0 2 0 4 0 6-2 2-4 4-6 6l-212 214c-2 2-4 4-8 4-2 2-4 2-8 2h-468c-12 0-22-10-22-22v-896c0-12 10-20 22-20h426v42h-406v854h428v-192c0-12 8-22 20-22h192zM512 888l140-142h-140zM1022 264c-2 8-10 14-20 14h-136l-78 158c-4 8-12 12-20 12v0c-8 0-16-4-18-12l-80-158h-136c-10 0-18-6-20-14-4-10-2-18 6-24l116-98-58-178c-4-8 0-18 6-24 4-2 8-4 14-4 4 0 8 2 12 4l158 108 158-108c8-6 18-6 26 0 6 6 10 16 6 24l-58 178 116 98c8 6 10 14 6 24zM862 166c-8-6-10-16-8-24l44-132-118 82c-8 6-16 6-24 0l-118-82 44 132c2 8 0 18-8 24l-82 68h90c8 0 16 6 20 12l66 132 66-132c4-6 12-12 20-12h90z" />
<glyph unicode="&#x78;" d="M682 406h44v320c0 2-2 4-2 8-2 2-2 4-4 6l-214 214c-2 2-4 4-8 4-2 2-4 2-8 2h-468c-12 0-22-10-22-22v-896c0-12 10-20 22-20h384v42h-364v854h428v-192c0-12 8-22 20-22h192zM512 888l140-142h-140zM1018 336l-106 106c-8 8-24 8-32 0l-320-320c0-2-2-4-4-6 0-2 0-2 0-2 0 0 0-2 0-2l-44-148c-2-8 0-16 6-22 4-4 10-6 16-6 2 0 4 0 6 0l148 44c0 0 2 0 2 0s0 0 2 0c2 2 4 4 6 4l320 320c8 10 8 22 0 32zM682 30l-76 76 204 206 78-78zM586 66l56-56-78-22zM918 264l-78 78 56 54 76-76z" />
<glyph unicode="&#x79;" d="M42 918h428v-192c0-12 8-22 20-22h192v-150h44v172c0 0 0 0 0 0s0 0 0 0c0 2-2 4-2 6 0 0 0 0 0 2-2 2-4 4-6 6l-212 214c-2 2-4 4-8 4-2 2-4 2-8 2h-468c-12 0-22-10-22-22v-896c0-12 10-20 22-20h426v42h-406zM512 888l140-142h-140zM746 490c-152 0-276-124-276-276 0-154 124-278 276-278 154 0 278 124 278 278 0 152-124 276-278 276zM746-22c-128 0-234 106-234 236 0 128 106 234 234 234 130 0 236-106 236-234 0-130-106-236-236-236zM824 206l-56-58v182c0 12-10 22-22 22s-20-10-20-22v-182l-58 58c-8 8-22 8-30 0-8-10-8-22 0-32l108-108 108 108c10 10 10 22 0 32-8 8-20 8-30 0z" />
<glyph unicode="&#x7a;" d="M42 918h428v-192c0-12 8-22 20-22h192v-150h44v172c0 0 0 0 0 0s0 0 0 0c0 2-2 2-2 4 0 2 0 2 0 4-2 2-4 4-6 6l-212 214c-2 2-4 4-8 4-2 2-4 2-8 2h-468c-12 0-22-10-22-22v-896c0-12 10-20 22-20h426v42h-406zM512 888l140-142h-140zM746 490c-152 0-276-124-276-276 0-154 124-278 276-278 154 0 278 124 278 278 0 152-124 276-278 276zM746-22c-128 0-234 106-234 236 0 128 106 234 234 234 130 0 236-106 236-234 0-130-106-236-236-236zM876 344c-8 8-20 8-30 0l-100-100-100 100c-8 8-22 8-30 0s-8-22 0-30l100-100-100-100c-8-10-8-22 0-30 4-6 10-8 16-8 4 0 10 2 14 8l100 100 100-100c4-6 10-8 16-8s10 2 14 8c10 8 10 20 0 30l-100 100 100 100c10 8 10 22 0 30z" />
<glyph unicode="&#x7b;" d="M527.089 713.496c6.836 3.937 11.701 10.307 13.75 17.905 2.022 7.6 1.012 15.528-2.925 22.335-5.275 9.131-15.060 14.763-25.588 14.763-5.194 0-10.115-1.327-14.681-3.937-14.052-8.134-18.917-26.217-10.798-40.266 7.817-13.587 26.491-18.7 40.241-10.8zM506.149 178.624c-5.139 0-10.225-1.366-14.681-3.964-6.836-3.937-11.725-10.279-13.75-17.877-2.022-7.627-0.985-15.555 2.953-22.389 7.793-13.477 26.544-18.699 40.241-10.77 14.077 8.146 18.917 26.189 10.798 40.24-5.249 9.103-15.060 14.763-25.559 14.763zM512 949.523c-278.289 0-503.873-225.584-503.873-503.873s225.584-503.873 503.873-503.873 503.873 225.584 503.873 503.873c0 278.289-225.584 503.873-503.873 503.873zM771.81 322.497c-10.717-39.993-36.359-73.454-72.226-94.12l-109.618-63.313c6.557-34.746-8.643-71.405-40.954-90.076-13.012-7.516-27.801-11.509-42.756-11.509-30.535 0-58.991 16.429-74.244 42.838-11.43 19.819-14.464 42.892-8.559 64.98 5.933 22.115 20.090 40.595 39.938 52.023 12.987 7.516 27.774 11.453 42.756 11.453 20.801 0 40.514-7.737 55.877-20.967l109.456 63.203c22.881 13.202 39.227 34.527 46.061 60.033s3.336 52.132-9.869 75.012c-27.257 47.211-87.806 63.381-135.019 36.195l-98.82-57.052c-74.002-42.768-169.024-17.251-211.753 56.751-20.694 35.852-26.191 77.637-15.473 117.632 10.717 40.020 36.359 73.427 72.226 94.147l109.783 63.353c-6.563 34.76 8.612 71.418 40.922 90.116 13.040 7.516 27.801 11.48 42.781 11.48 30.509 0 58.995-16.401 74.248-42.836 11.398-19.819 14.464-42.892 8.525-64.98-5.933-22.115-20.090-40.568-39.911-52.010-12.987-7.505-27.774-11.467-42.756-11.467-20.8 0-40.539 7.763-55.877 20.967l-109.618-63.272c-22.881-13.217-39.256-34.513-46.092-60.033-6.804-25.52-3.307-52.16 9.899-75.026 27.253-47.238 87.806-63.394 135.016-36.18l98.824 57.038c73.979 42.756 169.001 17.264 211.757-56.737 20.692-35.88 26.185-77.649 15.473-117.644z" />
<glyph unicode="&#x7c;" d="M540 922c-118-4-224-52-300-138-68-76-106-174-112-280l-88 134c-8 8-20 12-30 6-10-8-12-20-6-30l128-192c0-2 0-2 2-4 0 0 2-2 2-2 2 0 4-2 4-2 2 0 4-2 6-2 0 0 0 0 2 0s0 0 0 0c2 0 2 0 2 0 0 0 0 0 0 0 2 0 4 0 6 2 0 0 2 0 2 0 4 2 6 4 8 6l148 170c8 8 8 22-2 30-8 8-22 6-30-2l-112-130c4 104 38 196 102 266 68 78 164 122 270 126 210 8 388-158 396-370 4-102-32-200-102-276-70-74-166-118-268-122-12 0-22-10-20-22 0-12 10-20 20-20 0 0 2 0 2 0 114 4 218 52 296 136 78 82 118 192 114 306-8 234-206 418-440 410z" />
<glyph unicode="&#x7d;" d="M290 574c-8 8-22 6-30-2l-98-120c-12 78 4 154 42 222 48 80 128 138 220 158 124 30 252-12 334-106 8-8 22-10 32-2 8 8 8 22 0 30-92 106-236 152-374 120-104-24-194-90-248-178-40-70-58-148-52-228l-76 116c-8 10-20 12-30 6-10-8-12-20-6-30l118-178c4-6 10-8 16-10 2 0 2 0 2 0 6 0 12 4 16 8l138 164c6 10 6 22-4 30zM1002 398l-118 178c-4 6-10 8-18 8-6 2-12-2-16-6l-138-164c-8-10-6-22 2-30 10-8 24-6 30 2l96 114c6-154-100-294-260-332-114-26-234 6-318 90-8 8-22 8-30 0-8-8-8-22 0-30 74-72 170-112 270-112 30 0 58 4 88 10 178 42 298 200 294 372l82-124c4-6 12-10 18-10 4 0 8 2 12 4 10 8 12 20 6 30z" />
<glyph unicode="&#xe00b;" d="M542 448l476 476c8 8 8 22 0 30s-22 8-30 0l-476-476-476 476c-8 8-22 8-30 0s-8-22 0-30l476-476-476-476c-8-8-8-22 0-30 4-4 10-6 16-6 4 0 10 2 14 6l476 476 476-476c4-4 10-6 14-6 6 0 12 2 16 6 8 8 8 22 0 30z" />
<glyph unicode="&#xe00c;" d="M1016 956c-10 6-24 4-30-4l-690-962-260 260c-8 8-22 8-30 0s-8-22 0-30l278-278c4-4 10-6 14-6 2 0 2 0 2 0 6 0 12 4 16 8l704 982c6 10 4 24-4 30z" />
<glyph unicode="&#xe01b;" d="M950 374l-234 232-128 128c0 0 0 0 0 0l-150 152c-50 48-114 74-182 74s-132-26-180-74c-50-50-76-114-76-182 0-68 26-132 74-182l512-512c50-48 114-74 182-74s132 26 182 76c48 48 74 112 74 180 0 68-26 132-74 182zM754 508l-302-302-182 182 302 302 112-112zM42 704c0 56 22 110 64 150 40 42 94 64 150 64 58 0 110-22 150-64l136-134-302-302-134 136c-42 40-64 92-64 150zM918 42c-40-42-94-64-150-64-58 0-110 22-150 64l-136 134 302 302 134-136c42-40 64-94 64-150 0-58-22-110-64-150zM180 620c-6 0-10-2-14-6-10-8-10-22 0-30 4-4 8-6 14-6 6 0 12 2 16 6 8 8 8 22 0 30-4 4-10 6-16 6zM256 704c-8-8-8-22 0-30 4-4 10-6 14-6 6 0 12 2 16 6 8 8 8 22 0 30-4 4-10 6-16 6-4 0-10-2-14-6zM180 690c8 8 8 22 0 30-4 4-10 6-14 6-6 0-12-2-16-6-8-8-8-22 0-30 4-4 10-6 16-6 4 0 10 2 14 6zM256 774c6 0 10 2 14 6 10 8 10 22 0 30-4 4-8 6-14 6-6 0-12-2-16-6-8-8-8-22 0-30 4-4 10-6 16-6zM270 598c-8-8-8-20 0-30 4-4 10-6 16-6 6 0 10 2 14 6 10 10 10 22 0 30-4 6-8 8-14 8-6 0-12-2-16-8zM362 690c-10-8-10-22 0-30 4-4 8-8 14-8 6 0 12 4 16 8 8 8 8 22 0 30-4 4-10 6-16 6-6 0-10-2-14-6zM362 758c4 0 10 2 14 6 8 10 8 22 0 30-4 6-10 8-14 8-6 0-12-2-16-8-8-8-8-20 0-30 4-4 10-6 16-6zM662 138c-4 0-10-2-14-6-8-10-8-22 0-30 4-6 10-8 14-8 6 0 12 2 16 8 8 8 8 20 0 30-4 4-10 6-16 6zM768 192c8 8 8 22 0 30-4 4-10 6-14 6-6 0-12-2-16-6-8-8-8-22 0-30 4-4 10-6 16-6 4 0 10 2 14 6zM768 122c-4 0-10-2-14-6-8-8-8-22 0-30 4-4 10-6 14-6 6 0 12 2 16 6 8 8 8 22 0 30-4 4-10 6-16 6zM860 212c-6 0-12-2-16-6-8-8-8-22 0-30 4-4 10-6 16-6 4 0 10 2 14 6 8 8 8 22 0 30-4 4-10 6-14 6zM662 206c10 8 10 22 0 30-4 4-8 8-14 8-6 0-12-4-16-8-8-8-8-22 0-30 4-4 10-6 16-6 6 0 10 2 14 6zM754 298c8 8 8 20 0 30-4 4-10 6-16 6-6 0-10-2-14-6-10-10-10-22 0-30 4-4 8-8 14-8 6 0 12 4 16 8zM858 282c10 8 10 22 0 30-4 4-8 6-14 6-6 0-10-2-16-6-8-8-8-22 0-30 4-4 10-6 16-6 6 0 10 2 14 6z" />
<glyph unicode="&#xe01c;" d="M320 768c0-12-10-22-22-22s-20 10-20 22c0 12 8 22 20 22 12 0 22-10 22-22zM426 810c0-12-8-20-20-20s-22 8-22 20c0 12 10 22 22 22 12 0 20-10 20-22zM640 810c0-12-10-20-22-20s-20 8-20 20c0 12 8 22 20 22 12 0 22-10 22-22zM534 768c0-12-10-22-22-22s-22 10-22 22c0 12 10 22 22 22 12 0 22-10 22-22zM746 768c0-12-8-22-20-22s-22 10-22 22c0 12 10 22 22 22 12 0 20-10 20-22zM1024 342c0 32-14 60-38 80 24 14 38 38 38 68 0 50-56 72-86 82-8 222-188 388-426 388-238 0-418-166-426-388-30-10-86-32-86-82 0-30 14-54 38-68-24-20-38-48-38-80 0-36 18-66 44-86-26-20-44-50-44-86 0-50 36-94 86-104v-24c0-58 48-106 106-106h640c58 0 106 48 106 106v24c50 10 86 54 86 104 0 36-18 66-44 86 26 20 44 50 44 86zM512 918c212 0 372-146 384-342h-768c12 196 172 342 384 342zM42 490c0 22 46 38 68 44h804c22-6 68-22 68-44 0-10 0-42-64-42-20 0-40 6-50 16-4 4-12 6-18 6-6-2-12-6-16-12-12-24-38-52-88-52-44 0-70 14-86 50-4 8-12 14-20 14-8 0-16-6-20-14-16-38-66-50-108-50-42 0-92 12-108 50-4 8-12 14-20 14-8 0-16-6-20-14-16-36-42-50-86-50-50 0-76 28-88 52-4 6-10 10-16 12-6 0-14-2-18-6-10-10-30-16-50-16-64 0-64 32-64 42zM896 42c0-34-28-64-64-64h-640c-36 0-64 30-64 64v22h768zM982 170c0-34-30-64-64-64h-812c-34 0-64 30-64 64 0 36 30 64 64 64h400l252-126c4 0 6-2 10-2 6 0 10 2 16 6l120 122h14c34 0 64-28 64-64zM602 234h242l-80-80zM918 278h-812c-34 0-64 28-64 64 0 34 30 64 64 64 22 0 42 4 58 12 28-36 68-56 114-56 48 0 84 16 108 46 32-32 82-46 126-46 44 0 94 14 126 46 24-30 60-46 108-46 46 0 86 20 114 56 16-8 36-12 58-12 34 0 64-30 64-64 0-36-30-64-64-64z" />
<glyph unicode="&#xe01d;" d="M982 244l-458 164c0 0 0 0 0 0l-112 38c-6 4-14 2-18-2-6-4-10-10-10-18 0-16-40-42-128-42-72 0-128 28-128 42 0 12-10 22-22 22h-42c-36 0-64-28-64-64v-298c0-12 10-22 22-22h980c12 0 22 10 22 22v98c0 26-18 50-42 60zM980 192h-446c0 24 18 42 42 42h128c28 0 48 20 58 42l206-72c4-2 8-6 12-12zM64 406h26c20-40 96-64 166-64 84 0 144 22 164 56l56-20-22-22c-8-8-8-22 0-30 4-4 10-6 16-6 4 0 10 2 14 6l36 36 36-12-16-14c-8-10-8-22 0-32 4-4 10-6 14-6 6 0 12 2 16 6l30 30 122-42c-4-8-12-14-18-14h-128c-48 0-86-38-86-86h-322c-8 66-60 116-126 126v66c0 12 10 22 22 22zM42 276c42-10 76-42 84-84h-84zM42 106v44h940v-44zM1002 832h-980c-12 0-22-10-22-22v-98c0-26 18-50 42-60l570-202c2-2 4-2 6-2 6 0 10 2 12 4 6 4 10 10 10 18 0 16 40 42 128 42 72 0 128-28 128-42 0-12 10-22 22-22h42c36 0 64 28 64 64v298c0 12-10 22-22 22zM982 620c-42 10-76 42-84 84h84zM982 790v-44h-940v44zM44 704h446c0-24-18-42-42-42h-128c-28 0-48-20-58-42l-206 72c-4 2-8 6-12 12zM960 490h-26c-20 40-96 64-166 64-84 0-144-22-164-56l-56 20 22 22c8 8 8 22 0 30s-22 8-30 0l-36-36-36 12 16 14c8 10 8 22 0 32-8 8-22 8-30 0l-30-30-122 42c4 8 12 14 18 14h128c48 0 86 38 86 86h322c8-66 60-116 126-126v-66c0-12-10-22-22-22z" />
<glyph unicode="&#xe01e;" d="M512 342c24 0 42-20 42-44 0-12 10-20 22-20 12 0 22 8 22 20 0 40-28 74-64 82v26c0 12-10 20-22 20s-22-8-22-20v-26c-36-8-64-42-64-82 0-46 38-84 86-84 24 0 42-20 42-44 0-22-18-42-42-42-24 0-42 20-42 42 0 12-10 22-22 22-12 0-22-10-22-22 0-38 28-72 64-82v-24c0-12 10-22 22-22s22 10 22 22v24c36 10 64 44 64 82 0 48-38 86-86 86-24 0-42 20-42 42 0 24 18 44 42 44zM644 530c-4 2-8 4-14 4h-236c-6 0-10-2-14-4-102-76-210-224-210-338 0-174 110-256 342-256 232 0 342 82 342 256 0 114-108 262-210 338zM512-22c-264 0-298 108-298 214 0 98 96 230 186 298h224c90-68 186-200 186-298 0-106-34-214-298-214zM362 618c-12 0-20-8-20-20s8-22 20-22h300c12 0 20 10 20 22s-8 20-20 20zM384 682c0-12 10-20 22-20h212c12 0 22 8 22 20 0 78 80 200 82 202 6 8 4 18-2 26-6 6-16 10-24 6l-130-56-34 86c-4 8-12 14-20 14s-16-6-20-14l-34-86-130 56c-8 4-18 0-24-6-6-8-6-18-2-26 2-2 82-124 82-202zM460 812c6-2 12-2 18 0 4 2 10 6 12 12l22 58 22-58c2-6 8-10 12-12 6-2 12-2 18 0l88 38c-22-40-48-96-54-146h-172c-6 50-32 106-54 146z" />
<glyph unicode="&#xe01f;" d="M724 244c-18 8-38 16-56 24 12 12 22 26 34 44 32-20 78-26 120-26 58 0 112 10 122 14 8 2 14 8 16 16 2 8-2 16-8 22-24 18-32 78-40 142-16 118-36 280-182 342l2 16c4 30-4 62-24 86-20 22-50 36-82 36h-228c-32 0-62-14-82-36-20-24-28-56-24-86l2-14c-146-64-166-224-182-344-8-64-16-124-40-142-6-6-10-14-8-22 2-8 8-16 16-16 10-4 64-14 122-14 42 0 88 6 120 26 10-18 22-32 34-44-18-8-38-16-56-24-162-68-300-126-300-266v-42h1024v42c0 140-138 198-300 266zM692 212c4-2 10-6 16-8 4-2 8-2 10-4l-50-134-94 14zM704 636l20 142c114-56 130-192 144-304 8-54 14-104 32-140-54-8-138-12-180 16 14 34 22 76 26 128 14-6 28-8 44-8 12 0 20 8 20 20 0 12-8 22-20 22-18 0-34 6-50 14-2 2-4 4-8 6-32 22-56 60-66 86h16c12 0 20 8 22 18zM348 896c12 14 30 22 50 22h228c20 0 38-8 50-22s16-34 14-52l-26-182h-304l-26 182c-2 18 2 38 14 52zM234 470c16 0 30 2 44 8 4-52 12-94 26-128-42-28-126-24-180-16 18 36 24 86 32 142 14 110 30 246 144 304l20-144c2-10 10-18 22-18h16c-10-26-34-64-66-86-4-2-6-4-8-6-16-8-32-14-50-14-12 0-20-10-20-22 0-12 8-20 20-20zM320 500c44 32 74 80 82 118h220c8-38 38-86 82-118-4-208-114-240-180-260-4-2-8-4-12-4-4 0-8 2-12 4-66 20-176 52-180 260zM316 204c6 2 12 6 16 8l118-132-94-14-50 134c2 2 6 2 10 4zM490-22h-448c0 100 96 150 224 206l62-164 156 22 6-8zM374 230c8 2 14 4 20 8 34-22 68-32 94-40 6-2 12-4 18-4 2-2 4-2 6-2 2 0 4 0 6 2 6 0 12 2 18 4 26 8 60 18 94 40 6-4 12-6 20-8l-138-156zM534-22v56l6 8 156-22 62 164c128-56 224-106 224-206zM448 768h42v-42c0-12 10-22 22-22s22 10 22 22v42h42c12 0 22 10 22 22s-10 20-22 20h-42v44c0 12-10 20-22 20s-22-8-22-20v-44h-42c-12 0-22-8-22-20s10-22 22-22zM406 490c4 0 10 0 14 0h12c6 0 12 0 16 0 0-12 10-20 22-20 12 0 20 8 20 20 0 14-4 24-10 30-14 14-30 14-48 14h-10c-18 0-36 0-48-14-8-6-12-16-12-30 0-12 10-20 22-20 12 0 22 8 22 20zM554 470c12 0 22 8 22 20 4 0 10 0 16 0h12c4 0 10 0 14 0 0-12 10-20 22-20 12 0 22 8 22 20 0 14-4 24-12 30-12 14-30 14-48 14h-10c-16 0-34 0-48-14-6-6-10-16-10-30 0-12 8-20 20-20z" />
<glyph unicode="&#xe600;" d="M1024.013 883.2c0 42.413-34.375 76.8-76.8 76.8h-870.4c-42.425 0-76.8-34.387-76.8-76.8v-870.4c0-42.425 34.375-76.8 76.8-76.8h870.4c42.425 0 76.8 34.375 76.8 76.8v870.4zM819.213 628.312c0-23.9-37.425-44.9-60.875-61.725 0.25-5.125-0.175-10.25-0.175-15.425 0-157.662-120.825-339.462-341.325-339.462-67.7 0-130.825 19.75-183.875 53.55 9.35-1.050 18.9-1.65 28.55-1.65 56.15 0 107.8 19.1 148.8 51.1-52.4 0.95-96.7 35.45-111.95 82.85 7.3-1.4 14.85-2.15 22.55-2.15 10.95 0 34.15 1.45 44.25 4.2-54.85 10.95-83.55 59.187-83.55 116.987v1.5c0-8.925 21.975-14.275 41.675-14.925-32.2 21.375-59.675 57.925-59.675 99.3 0 21.85 2.725 42.375 13.025 59.975 59.15-72.175 145.875-119.675 245.525-124.65-2.050 8.725-3.925 17.825-3.925 27.2 0 65.9 53.3 119.325 119.5 119.325 34.5 0 65.45-14.5 87.3-37.7 27.3 5.35 52.85 15.275 76.050 28.95-8.95-27.85-26.925-51.25-51.725-66 24.3 2.9 69.85 9.3 69.85 18.8v-0.050z" />
<glyph unicode="&#xe601;" d="M947.2 960h-870.4c-43.52 0-76.8-33.28-76.8-76.8v-870.4c0-43.52 33.28-76.8 76.8-76.8h870.4c43.52 0 76.8 33.28 76.8 76.8v870.4c0 43.52-33.28 76.8-76.8 76.8zM337.92 158.72h-133.12v419.84h130.56v-419.84zM271.36 637.44c-40.96 0-76.8 33.28-76.8 76.8 0 40.96 33.28 76.8 76.8 76.8 40.96 0 76.8-33.28 76.8-76.8 0-43.52-35.84-76.8-76.8-76.8zM829.44 158.72h-130.56v204.8c0 48.64 0 112.64-69.12 112.64s-79.36-53.76-79.36-107.52v-209.92h-130.56v419.84h125.44v-58.88h2.56c17.92 33.28 61.44 69.12 122.88 69.12 133.12 0 156.16-87.040 156.16-202.24v-227.84z" />
<glyph unicode="&#xe602;" d="M947.213 960h-870.4c-42.413 0-76.8-34.387-76.8-76.8v-870.4c0-42.425 34.387-76.8 76.8-76.8h870.4c42.425 0 76.8 34.375 76.8 76.8v870.4c0 42.413-34.375 76.8-76.8 76.8zM583.288 360.7c14.525-9.9 31.125-28.65 31.125-64.45v-64.975c0-4.525-2.6-9-4.85-12.925-17.9-31.2-51.8-50.4-87.725-50.4-35.938 0-67.187 19.2-85.1 50.375-2.275 3.95-1.525 8.425-1.525 12.975v50.8c-102.4-20.2-110.288 41.8-110.288 41.8-14.175 36.45-35.837 46.050-35.837 46.050-28.675 19.45 1.55 19.1 1.55 19.1 31.525-2.15 47.888-32.25 47.888-32.25 29.75-50.95 78.8-32.55 94.050-25.1 4.575 22.3 21.888 26.9 27.538 28.65-80.375 8.5-166.488 37.55-166.488 176.738 0 38.95 13.8 70.825 36.45 95.6-3.525 9.2-15.925 45.35 3.575 94.55 0 0 30.062 9.55 98.062-36.45 28.325 7.775 58.8 11.675 89.25 12.025 30.1-0.35 60.575-4.25 89.225-12.025 68 46 97.775 36.45 97.775 36.45 19.475-49.2 7.425-85.35 3.525-94.55 23.025-24.775 37.525-56.65 37.525-95.6 0-139.187-85.35-167.888-165.725-176.387z" />
<glyph unicode="&#xe603;" d="M557.937 403.375c-151.8-52.925-206.3-158.2-211.1-168.075 45.6-35.6 102.95-56.825 165.15-56.825 37.3 0 72.8 7.625 105.15 21.4-4 23.6-19.65 105.9-57.4 204.075-0.6-0.175-1.2-0.375-1.8-0.575zM530.837 445.25c3.5 1.125 7.050 2.2 10.6 3.2-6.75 15.275-14.1 30.6-21.8 45.675-134.4-40.225-264.85-38.55-276.6-38.3-0.1-2.75-0.15-5.475-0.15-8.225 0-69.125 26.2-132.225 69.2-179.95 6.1 10.45 79.95 132.725 218.75 177.6zM497.387 535.525c-44.6 79.25-92.7 145.9-99.8 155.625-75.3-35.525-131.55-104.925-149-188.425 12-0.15 122.9-0.65 248.8 32.8zM610.088 416.375c35.2-96.7 49.55-175.5 52.3-191.875 60.35 40.825 103.35 105.5 115.35 180.375-9.2 2.9-83.3 25-167.65 11.5zM947.213 960h-870.4c-42.4 0-76.8-34.387-76.8-76.8v-870.4c0-42.425 34.4-76.8 76.8-76.8h870.4c42.425 0 76.8 34.375 76.8 76.8v870.4c0 42.413-34.375 76.8-76.8 76.8zM511.987 132.925c-173.7 0-315.050 141.35-315.050 315.1 0 173.7 141.35 315.050 315.050 315.050 173.75 0 315.1-141.35 315.1-315.050 0-173.75-141.35-315.1-315.1-315.1zM690.387 648.925c-47.5 42.15-110 67.8-178.4 67.8-21.7 0-42.8-2.6-63.050-7.5 7.45-9.95 56.3-76.5 100.4-157.525 95.7 35.85 136.2 90.325 141.050 97.225zM570.037 511.675c6.3-12.825 12.25-25.85 17.85-38.975 2-4.675 3.95-9.275 5.85-13.9 89.5 11.275 178.45-6.775 187.35-8.675-0.6 63.55-23.3 121.85-60.75 167.65-5.7-7.65-50.8-65.475-150.3-106.1z" />
<glyph unicode="&#xe604;" d="M565.76 537.6c-17.92 10.24-35.84 15.36-53.76 15.36-38.4 0-69.12-17.92-89.6-51.2-10.24-17.92-15.36-35.84-15.36-53.76 0-38.4 17.92-69.12 51.2-89.6 17.92-10.24 35.84-15.36 53.76-15.36 38.4 0 69.12 17.92 89.6 51.2 10.24 17.92 15.36 35.84 15.36 53.76 0 38.4-17.92 69.12-51.2 89.6zM947.2 960h-870.4c-43.52 0-76.8-33.28-76.8-76.8v-870.4c0-43.52 33.28-76.8 76.8-76.8h870.4c43.52 0 76.8 33.28 76.8 76.8v870.4c0 43.52-33.28 76.8-76.8 76.8zM826.88 422.4c0-40.96-17.92-71.68-51.2-92.16-15.36-10.24-33.28-15.36-53.76-15.36-40.96 0-71.68 17.92-92.16 53.76-2.56 5.12-2.56 7.68-5.12 10.24-30.72-40.96-69.12-64-112.64-64-48.64 0-84.48 20.48-110.080 61.44-12.8 23.040-20.48 46.080-20.48 71.68 0 48.64 20.48 84.48 61.44 110.080 23.040 12.8 46.080 20.48 71.68 20.48 48.64 0 84.48-20.48 110.080-61.44 12.8-23.040 20.48-46.080 20.48-71.68v-25.6c0-33.28 15.36-56.32 43.52-69.12 10.24-5.12 23.040-7.68 35.84-7.68 33.28 0 56.32 15.36 69.12 43.52 5.12 10.24 7.68 23.040 7.68 35.84v25.6c0 84.48-30.72 156.16-94.72 215.040-56.32 51.2-120.32 74.24-194.56 74.24-84.48 0-156.16-30.72-215.040-94.72-51.2-56.32-74.24-120.32-74.24-194.56 0-84.48 30.72-156.16 94.72-215.040 56.32-51.2 120.32-74.24 194.56-74.24 61.44 0 115.2 17.92 163.84 51.2 7.68 5.12 12.8 2.56 17.92-2.56 2.56-7.68 0-12.8-2.56-17.92-53.76-35.84-112.64-56.32-179.2-56.32-92.16 0-168.96 33.28-230.4 99.84-56.32 61.44-84.48 133.12-84.48 215.040 0 92.16 33.28 168.96 99.84 230.4 61.44 56.32 133.12 84.48 215.040 84.48 92.16 0 168.96-33.28 230.4-99.84 56.32-61.44 84.48-133.12 84.48-215.040v-25.6z" />
<glyph unicode="&#xe605;" d="M556.463-62.676c-46.604 6.657-79.893 19.973-106.524 66.577-6.657 19.973-13.315 39.946-13.315 53.262 0 33.288 13.315 53.262 33.288 79.893l186.417 186.417h-552.591c-39.946 0-66.577 26.631-79.893 73.235-6.657 6.657-6.657 19.973-6.657 33.288 0 46.604 19.973 79.893 53.262 99.866 13.315 6.657 26.631 6.657 33.288 6.657h545.933l-193.074 186.417c-33.288 39.946-39.946 79.893-19.973 126.496 6.657 13.315 13.315 26.631 26.631 33.288 26.631 26.631 53.262 39.946 86.55 39.946 33.288 0 53.262-13.315 79.893-33.288l452.725-452.725c6.657-13.315 6.657-19.973 0-33.288l-446.067-446.067c-19.973-13.315-39.946-26.631-79.893-19.973z" horiz-adv-x="1100" />
</font>
</defs>
</svg>
